<svg xmlns="http://www.w3.org/2000/svg" viewBox="0 0 778 984">
<rect width="778" height="984" fill="#ffffff"/>
<g transform="translate(0,984) scale(0.1,-0.1)" fill="#000000" stroke="none"><path d="M0 4920 l0 -4920 3890 0 3890 0 0 4920 0 4920 -3890 0 -3890 0 0
-4920z m656 4862 c7 -4 36 -28 65 -54 136 -118 160 -138 206 -169 26 -18 107
-75 179 -126 72 -51 162 -107 200 -124 38 -17 96 -43 129 -59 57 -26 138 -53
198 -65 41 -8 33 -23 -25 -40 -57 -18 -342 -38 -533 -38 -246 0 -532 42 -660
97 -104 44 -247 140 -343 229 l-32 31 0 163 0 163 303 0 c166 0 307 -4 313 -8z
m335 -93 c57 -56 124 -118 149 -137 25 -20 77 -64 115 -97 39 -34 83 -71 99
-83 41 -32 10 -28 -66 7 -35 16 -86 49 -113 73 -28 23 -77 59 -109 78 -55 33
-93 62 -195 148 -24 20 -61 50 -82 65 -22 16 -39 33 -39 38 0 5 31 9 68 9 l69
0 104 -101z m1167 89 c5 -7 13 -49 17 -93 4 -44 17 -120 30 -170 13 -49 26
-112 29 -140 14 -114 56 -323 82 -411 35 -118 38 -113 -58 -109 -89 4 -264 19
-418 36 -161 17 -280 22 -280 11 0 -28 177 -58 435 -73 99 -6 205 -12 235 -14
30 -2 118 -20 195 -39 77 -20 162 -39 188 -42 56 -8 93 -34 102 -72 3 -15 17
-45 31 -67 13 -22 32 -58 43 -80 28 -60 99 -135 148 -156 24 -10 43 -23 43
-28 0 -23 -45 -19 -171 13 -274 69 -319 89 -274 122 27 20 10 30 -28 16 -73
-26 -168 -5 -138 32 7 8 21 18 32 21 33 11 21 25 -22 25 -33 0 -46 -6 -67 -30
-15 -16 -34 -30 -43 -30 -19 0 -79 31 -79 41 0 9 57 61 81 73 13 6 21 16 18
21 -8 18 -46 7 -112 -33 l-65 -40 -98 8 c-55 5 -117 15 -139 24 -22 8 -71 15
-110 16 -38 0 -101 5 -139 10 -107 16 -123 40 -47 69 41 15 72 43 60 55 -3 3
-27 -6 -54 -19 -26 -14 -58 -25 -70 -25 -12 0 -50 -11 -85 -25 -37 -14 -89
-26 -124 -27 -65 -3 -91 12 -40 23 17 3 42 13 55 22 13 10 33 17 44 17 24 0
63 25 54 34 -3 3 -32 -3 -65 -14 -32 -11 -99 -23 -149 -26 -86 -6 -165 -33
-165 -56 0 -4 21 -8 47 -8 33 0 53 -6 69 -21 12 -11 30 -20 40 -20 11 0 84 2
164 5 108 3 158 1 194 -10 27 -8 70 -14 95 -14 33 0 69 -11 126 -39 90 -43
157 -64 262 -81 68 -11 74 -10 98 8 26 20 26 20 93 1 37 -11 94 -24 127 -30
99 -17 111 -29 159 -154 23 -60 60 -145 81 -189 38 -76 39 -82 43 -202 5 -148
18 -136 -168 -153 -69 -6 -161 -15 -205 -20 -44 -5 -135 -10 -203 -10 -90 -1
-148 -7 -214 -23 -91 -21 -92 -21 -202 -3 -61 10 -151 26 -201 35 -77 16 -92
16 -109 4 -11 -8 -33 -14 -48 -14 -45 0 -45 -33 2 -177 23 -70 53 -151 66
-178 13 -28 24 -57 24 -64 0 -43 237 -518 360 -721 32 -52 84 -144 115 -205
31 -60 60 -114 65 -120 4 -5 23 -39 42 -75 74 -139 123 -214 239 -375 80 -110
215 -312 279 -415 19 -30 55 -80 80 -110 25 -30 59 -74 75 -98 83 -124 255
-250 553 -407 l77 -41 7 -89 c4 -50 12 -106 17 -125 6 -19 11 -56 11 -81 0
-25 7 -68 15 -95 8 -27 24 -103 35 -169 22 -129 34 -193 56 -295 8 -36 19 -99
24 -140 6 -41 19 -109 29 -150 19 -72 52 -232 106 -500 34 -168 62 -294 79
-355 29 -101 51 -244 39 -256 -6 -6 -48 -15 -94 -20 -110 -12 -196 -27 -293
-51 -43 -10 -94 -18 -114 -16 -42 3 -52 18 -77 118 -9 36 -30 108 -46 160 -16
52 -29 99 -29 104 0 5 -13 52 -29 105 -36 116 -73 272 -77 324 -3 31 -16 53
-61 104 -32 36 -76 81 -98 101 -125 115 -222 213 -255 257 -21 28 -57 60 -79
73 -37 20 -42 21 -48 6 -6 -15 16 -105 59 -239 10 -33 32 -112 49 -175 17 -63
48 -176 69 -250 22 -74 44 -157 50 -185 26 -120 92 -372 125 -473 19 -60 35
-116 35 -124 0 -25 48 -165 81 -236 17 -37 34 -84 37 -104 10 -78 -36 -25 -64
72 -7 25 -27 83 -44 130 -18 47 -38 102 -46 123 -8 22 -23 56 -33 76 -11 20
-23 55 -27 76 -4 22 -22 83 -41 135 -19 52 -41 118 -49 145 -9 28 -22 59 -29
71 -20 31 -55 143 -55 174 0 15 -13 52 -30 83 -21 40 -30 71 -30 104 -1 31
-10 66 -26 98 -24 48 -75 188 -151 414 -19 58 -41 114 -49 125 -8 11 -14 30
-14 42 0 28 -79 262 -98 292 -8 13 -18 40 -23 60 -17 83 -55 189 -99 277 -11
22 -20 52 -20 67 0 41 -65 224 -94 266 -14 21 -26 46 -26 55 0 10 -4 25 -9 35
-23 45 -41 94 -41 111 0 21 -42 137 -67 185 -9 17 -20 45 -24 61 -4 17 -17 54
-28 84 -11 30 -30 91 -42 135 -11 45 -26 94 -34 111 -7 16 -16 44 -20 60 -8
38 -66 187 -77 200 -4 5 -8 25 -8 45 0 19 -6 46 -13 60 -7 14 -20 52 -29 85
-21 77 -56 198 -74 255 -7 25 -22 74 -33 110 -11 36 -36 110 -55 165 -20 55
-36 109 -36 120 0 11 -14 53 -30 94 -17 41 -39 110 -50 155 -12 44 -25 90 -29
101 -5 11 -23 67 -41 125 -17 58 -36 116 -42 130 -5 14 -18 54 -28 90 -10 36
-25 85 -34 110 -8 25 -23 72 -31 105 -9 33 -23 77 -31 98 -8 20 -14 48 -14 60
0 13 -13 63 -28 112 -38 120 -53 173 -97 345 -20 80 -43 165 -52 190 -8 25
-19 68 -23 95 -10 60 -40 168 -70 250 -11 33 -28 85 -36 115 -8 30 -24 82 -34
115 -11 33 -20 77 -20 97 0 32 4 39 26 44 15 4 54 2 88 -4 34 -6 99 -14 146
-18 47 -4 110 -13 140 -20 72 -19 175 -18 263 2 49 12 92 15 139 10 72 -7 183
7 258 31 64 20 199 103 206 126 8 25 -13 39 -49 31 -45 -9 -318 110 -384 169
-21 18 -74 61 -119 94 -99 75 -296 262 -288 274 3 5 252 9 583 9 451 0 581 -3
589 -12z m772 -10 c21 -49 50 -212 50 -281 l0 -74 60 -86 c34 -48 60 -96 60
-110 0 -25 -23 -42 -42 -31 -5 3 -43 3 -84 -1 -53 -5 -74 -11 -74 -21 0 -25
35 -33 126 -27 76 5 91 3 103 -11 13 -15 12 -24 -3 -66 -10 -27 -15 -57 -13
-67 3 -10 8 -30 11 -44 3 -14 17 -31 31 -37 17 -8 25 -20 25 -37 0 -16 16 -43
43 -73 56 -63 87 -108 87 -128 0 -9 9 -18 20 -21 26 -7 26 -39 0 -53 -14 -7
-39 -7 -86 0 -82 13 -77 13 -91 11 -17 -1 -16 -26 1 -40 8 -7 47 -16 87 -21
41 -5 84 -12 96 -15 18 -6 23 -2 29 19 3 14 12 30 20 37 19 15 18 48 -1 55
-20 8 -38 41 -30 55 5 6 16 4 32 -6 13 -9 30 -14 37 -12 7 3 33 -4 57 -15 40
-18 52 -19 130 -9 156 20 187 16 399 -49 141 -43 169 -50 189 -50 26 0 108
-26 143 -45 14 -8 41 -15 60 -15 18 -1 51 -8 73 -16 22 -9 63 -22 90 -31 38
-12 68 -33 127 -90 49 -48 84 -73 95 -71 30 6 20 30 -27 63 -53 37 -62 72 -17
67 15 -1 85 -32 155 -67 143 -71 182 -85 182 -63 0 18 -236 139 -292 149 -46
9 -128 29 -218 53 -30 8 -89 24 -130 35 -41 12 -106 30 -145 41 -159 45 -282
81 -310 89 -16 5 -63 19 -103 31 -70 20 -74 23 -110 78 -20 31 -43 71 -50 87
-38 85 -107 261 -134 340 -56 164 -146 516 -147 578 -1 16 108 17 2144 17
l2145 0 0 -4140 c0 -3305 -3 -4140 -12 -4140 -7 0 -38 16 -68 35 -30 19 -61
35 -70 35 -9 0 -20 4 -25 9 -20 17 -142 79 -211 106 -66 25 -77 26 -145 19
-70 -9 -74 -10 -74 -34 0 -19 5 -24 20 -23 11 2 43 5 71 9 39 5 60 2 96 -15
26 -11 50 -21 53 -21 12 0 180 -81 195 -95 8 -7 32 -18 54 -25 21 -7 56 -30
77 -52 l39 -40 0 -689 0 -689 -1052 2 -1053 3 -27 85 c-14 47 -34 114 -44 150
-9 36 -33 117 -52 180 -18 63 -45 156 -58 205 -13 50 -33 117 -43 150 -10 33
-23 78 -29 100 -6 22 -22 81 -37 130 -15 50 -39 135 -55 190 -15 55 -41 145
-58 200 -17 55 -40 145 -52 200 -12 55 -32 145 -46 200 -33 130 -58 235 -73
310 -7 33 -19 87 -27 120 -22 96 -73 352 -89 453 -9 52 -20 103 -26 114 -6 11
-17 74 -24 141 -23 199 -33 277 -49 367 -9 47 -22 123 -31 170 -15 85 -48 390
-65 595 -5 61 -14 157 -20 215 -9 89 -27 383 -35 565 -2 59 7 81 37 90 90 26
157 61 290 149 40 27 100 67 133 89 33 22 92 62 132 89 40 27 98 78 130 114
32 36 81 85 110 108 29 22 91 76 139 119 69 61 93 77 118 77 17 0 53 12 80 26
l49 26 261 1 c144 1 275 -3 293 -7 27 -7 36 -4 68 26 l38 34 -16 70 c-9 38
-26 112 -37 166 -35 159 -70 230 -268 548 -36 58 -76 118 -89 133 -46 57 -24
61 68 14 35 -18 87 -43 114 -54 28 -12 62 -30 77 -40 23 -14 30 -15 40 -4 11
10 6 19 -27 46 -21 18 -48 36 -60 38 -38 10 -96 34 -107 45 -7 7 -19 12 -27
12 -9 0 -84 34 -169 76 -129 65 -166 89 -236 153 -45 42 -104 106 -131 143
-47 66 -113 118 -150 118 -10 0 -89 38 -177 85 -88 47 -164 85 -168 85 -9 0
-237 112 -325 160 -52 28 -91 41 -150 50 -44 6 -127 22 -185 35 -58 12 -147
31 -198 41 -91 18 -92 18 -102 52 -5 19 -16 42 -24 51 -8 9 -18 36 -22 59 -5
35 -4 42 9 42 17 0 110 -34 139 -50 10 -6 24 -10 31 -10 8 0 35 -11 60 -24 45
-25 87 -25 87 -1 0 13 -42 35 -66 35 -9 0 -30 6 -47 14 -18 8 -50 20 -72 27
-22 7 -69 27 -105 44 -69 34 -169 68 -235 80 -85 15 -141 55 -77 55 64 1 64
29 1 74 -22 15 -58 51 -79 80 -70 93 -102 126 -121 126 -11 0 -19 -3 -19 -6 0
-13 26 -53 71 -111 53 -67 59 -83 32 -83 -44 1 -97 46 -143 123 -51 85 -76
115 -86 104 -7 -7 -5 -12 31 -76 49 -87 15 -112 -54 -38 -22 23 -65 55 -95 70
-30 15 -58 37 -61 47 -8 24 -18 25 -35 6 -27 -33 -8 -59 73 -101 64 -34 83
-50 113 -95 29 -43 34 -60 29 -85 -3 -16 -8 -45 -12 -62 -3 -18 -9 -33 -14
-33 -5 0 -38 10 -73 21 -68 23 -116 20 -116 -6 0 -24 42 -43 110 -50 120 -12
161 -35 209 -120 21 -36 22 -47 16 -130 -4 -49 -12 -96 -18 -103 -7 -9 -35
-12 -93 -11 -56 2 -88 -2 -98 -11 -43 -35 49 -53 129 -25 60 22 109 19 152
-10 52 -33 133 -98 133 -107 0 -4 14 -23 31 -43 54 -62 27 -78 -86 -50 -33 8
-91 14 -129 15 -49 0 -75 5 -87 16 -28 25 -130 35 -191 17 -105 -29 -124 -33
-181 -33 -95 0 -121 26 -71 71 14 13 35 32 45 42 26 23 16 37 -26 37 -41 0
-52 24 -35 75 19 57 -14 95 -84 95 -50 0 -48 29 3 64 21 15 41 35 43 44 10 39
-19 228 -41 271 -27 51 -61 155 -61 185 0 30 -10 41 -57 65 -74 37 -147 132
-100 131 56 -2 220 -31 245 -44 71 -37 83 -7 13 32 -66 37 -237 63 -275 42
-31 -16 -59 -1 -76 39 -23 57 -4 70 75 51 44 -10 72 3 45 20 -14 9 -33 15
-128 40 -59 15 -77 68 -46 133 15 32 15 37 -4 88 -11 30 -34 84 -50 121 -27
59 -31 77 -32 175 -3 269 -1 563 5 573 4 6 59 10 141 10 130 0 135 -1 144 -22z
m-2713 -520 c82 -58 170 -107 246 -137 15 -6 30 -19 33 -28 3 -10 14 -37 25
-61 10 -24 28 -84 39 -135 12 -51 27 -110 35 -132 44 -130 85 -266 85 -287 0
-12 11 -56 25 -97 14 -40 28 -92 31 -115 3 -22 12 -61 20 -86 8 -25 28 -97 45
-160 17 -63 39 -140 49 -170 10 -30 26 -93 35 -140 16 -79 62 -230 220 -720
34 -107 68 -222 75 -255 7 -33 23 -84 36 -113 13 -30 33 -86 45 -125 11 -40
33 -106 49 -147 16 -41 32 -93 35 -115 4 -22 15 -65 25 -95 21 -66 52 -171 75
-260 9 -36 23 -81 30 -100 15 -38 52 -151 91 -270 47 -149 82 -246 107 -300
25 -54 55 -140 102 -292 13 -42 28 -85 33 -95 5 -10 17 -47 27 -83 22 -82 101
-296 153 -417 22 -50 68 -178 102 -285 34 -106 70 -213 80 -238 10 -25 25 -70
34 -100 18 -66 105 -314 146 -421 17 -41 30 -81 30 -88 0 -7 9 -31 19 -54 10
-23 24 -69 31 -102 7 -33 30 -101 51 -151 22 -50 39 -98 39 -105 0 -8 27 -90
59 -184 32 -93 69 -199 81 -235 12 -36 29 -79 36 -97 8 -17 14 -34 14 -37 0
-4 13 -34 29 -69 15 -34 36 -89 46 -122 23 -78 81 -227 111 -287 13 -26 24
-55 24 -65 0 -10 11 -36 25 -58 13 -22 25 -47 25 -57 0 -22 51 -129 78 -163
12 -15 22 -32 22 -37 0 -14 132 -340 169 -418 17 -36 31 -71 31 -79 0 -37 321
-670 392 -773 11 -16 16 -32 13 -38 -4 -7 -614 -10 -1821 -10 l-1814 0 0 4663
c0 2565 3 4667 7 4671 4 3 23 -9 42 -27 20 -19 77 -63 128 -99z m3848 -1898
c259 -10 382 -30 610 -98 44 -13 137 -66 223 -125 41 -29 102 -71 135 -93 33
-23 83 -61 110 -85 28 -24 61 -51 75 -60 13 -9 50 -41 82 -70 31 -30 98 -90
149 -134 50 -44 91 -87 91 -96 0 -50 -105 -222 -163 -266 -144 -110 -416 -276
-487 -298 -24 -7 -47 -19 -200 -103 -41 -23 -104 -52 -140 -66 -105 -40 -214
-92 -229 -110 -18 -21 -39 -20 -100 4 -27 10 -87 24 -131 29 -105 14 -173 53
-355 204 -165 137 -346 378 -460 612 -67 138 -145 340 -145 377 0 13 -7 54
-15 92 -19 90 -23 239 -7 259 17 20 97 29 290 32 90 2 166 6 170 10 4 4 68 4
142 1 74 -4 234 -11 355 -16z m-1037 -32 c7 -7 12 -30 12 -52 0 -47 26 -189
39 -214 5 -9 12 -42 15 -72 11 -86 119 -390 155 -436 12 -15 21 -31 21 -37 0
-20 134 -232 197 -311 71 -90 230 -256 245 -256 5 0 25 -18 46 -40 73 -77 262
-180 334 -180 50 -1 111 -28 116 -51 2 -10 -16 -32 -43 -54 -43 -36 -53 -39
-188 -60 -144 -23 -159 -23 -189 3 -16 13 -24 12 -75 -11 -81 -36 -131 -40
-263 -23 -113 14 -310 74 -400 120 -66 35 -152 101 -243 188 -51 48 -104 96
-119 108 -80 61 -298 350 -397 523 -102 179 -255 489 -280 567 -12 36 -28 76
-35 90 -8 14 -15 52 -17 85 l-4 60 30 -1 c17 -1 67 -5 113 -9 51 -5 121 -4
180 3 53 7 189 19 302 27 113 9 230 20 260 25 54 10 99 15 151 18 14 1 30 -3
37 -10z m-1131 -72 c7 -27 19 -64 28 -82 8 -17 15 -38 15 -45 0 -24 32 -108
84 -222 20 -43 36 -82 36 -86 0 -5 14 -36 30 -69 17 -34 30 -63 30 -66 0 -6
122 -226 170 -306 132 -221 323 -441 563 -648 140 -120 93 -103 -97 36 -151
109 -269 229 -379 382 -126 174 -203 302 -267 440 -12 25 -36 77 -54 115 -18
39 -39 88 -46 110 -6 22 -25 69 -40 105 -77 179 -140 350 -140 380 0 6 12 10
28 8 23 -3 29 -10 39 -52z m3486 -111 c77 -37 79 -48 2 -15 -26 11 -54 20 -63
20 -9 0 -28 10 -42 21 l-25 21 28 -7 c15 -3 60 -21 100 -40z m236 -609 c9 -11
6 -22 -14 -52 -30 -43 -42 -54 -68 -54 -16 0 -16 2 -2 38 33 78 59 99 84 68z
m81 -105 c17 -33 12 -40 -32 -43 -39 -3 -43 -5 -40 -29 2 -23 -3 -26 -70 -43
-40 -10 -94 -30 -121 -44 -26 -14 -50 -22 -53 -19 -4 3 4 20 17 36 22 28 44
38 122 55 15 4 35 15 43 25 55 65 74 81 98 81 15 0 30 -8 36 -19z m-832 -503
c-2 -6 -13 -16 -24 -22 -10 -6 -35 -20 -54 -32 -19 -11 -112 -59 -205 -106
-263 -133 -286 -141 -300 -117 -10 15 89 107 122 114 107 23 173 47 287 106
126 64 182 83 174 57z m-683 -379 c4 -6 -1 -31 -10 -56 -22 -56 -15 -104 27
-186 33 -66 68 -196 68 -254 0 -20 5 -53 12 -75 17 -57 0 -68 -45 -29 -34 31
-77 41 -77 20 0 -17 66 -79 83 -79 9 0 19 5 22 10 19 31 24 -13 19 -144 -6
-124 -5 -147 10 -167 22 -32 20 -51 -10 -127 -27 -68 -27 -110 0 -141 27 -33
46 -114 46 -204 l0 -90 -37 8 c-21 5 -69 9 -108 9 -56 1 -70 -2 -70 -14 0 -11
20 -18 78 -25 93 -12 120 -34 115 -94 -3 -36 -3 -36 -50 -36 -25 0 -50 -4 -54
-8 -12 -11 24 -37 50 -37 42 0 50 -16 57 -104 4 -46 14 -124 23 -173 39 -212
113 -649 127 -746 11 -77 7 -127 -10 -127 -16 0 -101 135 -101 160 0 14 -10
43 -21 65 -36 67 -177 491 -214 645 -20 80 -45 170 -57 200 -12 30 -24 78 -29
105 -16 113 -49 283 -63 335 -9 30 -16 76 -16 102 0 37 -8 60 -41 112 -28 45
-39 71 -34 86 3 11 10 20 14 20 14 0 31 50 31 91 0 26 -10 59 -27 88 l-26 48
33 58 c33 58 33 58 15 91 -9 18 -14 37 -11 43 4 7 41 11 89 11 63 0 89 4 107
18 l25 17 -50 7 c-81 10 -170 9 -182 -3 -9 -9 -19 -8 -39 6 -24 16 -26 20 -18
59 4 22 8 70 8 106 0 53 -4 72 -23 98 -28 40 -69 62 -114 62 -40 0 -61 20 -52
50 8 24 38 26 88 5 64 -26 185 -14 130 13 -10 5 -55 17 -101 27 -70 16 -86 16
-107 5 -21 -11 -31 -11 -62 2 -21 9 -56 20 -78 26 -68 18 -115 36 -115 45 0 5
9 5 20 2 34 -11 178 -23 207 -17 15 3 41 16 57 29 24 20 35 23 60 17 54 -14
158 -9 254 13 51 11 96 23 99 27 11 10 71 7 78 -5z m-466 -3158 c46 -46 50
-57 112 -301 43 -171 72 -282 84 -325 8 -27 23 -93 34 -145 10 -52 29 -126 41
-163 12 -38 30 -99 40 -135 10 -37 29 -101 43 -142 14 -41 32 -102 40 -135 18
-77 65 -223 111 -350 41 -113 43 -133 19 -142 -35 -11 -158 -67 -178 -80 -66
-44 -241 -143 -252 -143 -7 0 -18 12 -23 27 -6 16 -19 44 -29 63 -11 19 -25
58 -32 85 -7 28 -23 71 -36 96 -13 26 -23 52 -23 58 0 6 -15 51 -34 99 -19 48
-41 116 -49 152 -31 137 -175 614 -217 720 -10 25 -21 65 -25 90 -9 58 -31
137 -50 175 -7 17 -22 57 -31 90 -9 33 -34 112 -55 175 -22 64 -39 123 -39
133 0 18 11 24 95 50 77 24 311 63 393 66 29 1 48 -5 61 -18z m-794 -531 c8
-16 15 -39 15 -52 -1 -23 -1 -23 -15 -3 -8 11 -19 25 -25 32 -13 15 -13 53 0
53 5 0 16 -13 25 -30z m1366 -1387 c6 -16 38 -104 71 -198 33 -93 66 -180 74
-193 12 -18 12 -23 2 -27 -7 -3 -127 -4 -267 -3 l-253 3 -35 83 c-19 46 -33
95 -31 110 3 27 43 55 228 159 47 26 100 57 119 70 47 32 79 30 92 -4z M1367
8900 c-27 -5 -79 -18 -115 -29 -37 -11 -84 -19 -105 -18 -40 1 -86 -31 -73
-52 10 -16 42 -13 56 5 10 11 23 14 52 9 26 -5 59 0 105 15 65 20 173 68 173
76 0 6 -37 3 -93 -6z M906 8734 c-71 -14 -96 -27 -96 -50 0 -25 21 -25 88 1
37 14 79 31 95 37 15 6 27 14 27 19 0 12 -29 10 -114 -7z M883 8630 c-38 -15
-29 -40 14 -40 32 0 123 34 123 46 0 8 -115 3 -137 -6z M2800 9085 c0 -18 34
-41 75 -51 17 -4 47 -15 67 -25 45 -23 68 -24 68 -4 0 16 -34 36 -120 72 -64
27 -90 29 -90 8z M2805 8941 c-3 -5 5 -17 17 -26 32 -22 172 -65 214 -65 59 0
34 22 -46 42 -41 10 -91 27 -112 38 -42 22 -64 25 -73 11z M3164 8378 c-20
-32 189 -158 264 -158 39 0 25 29 -25 51 -102 45 -130 59 -180 89 -38 23 -53
27 -59 18z M3940 8270 c0 -12 21 -35 57 -62 32 -24 64 -48 73 -55 13 -10 12
-14 -4 -32 -26 -29 -12 -41 55 -47 164 -14 208 -26 454 -124 112 -44 163 -60
199 -60 17 0 62 -16 99 -34 42 -21 91 -37 125 -41 80 -9 181 -34 223 -55 20
-11 78 -33 130 -51 52 -17 111 -40 132 -51 41 -21 183 -49 204 -41 18 7 149
-46 169 -69 28 -30 66 -17 47 16 -15 26 -164 146 -199 161 -45 18 -139 103
-194 175 -24 30 -83 96 -131 145 -49 50 -94 97 -101 106 -13 15 -104 79 -114
79 -12 0 215 -263 359 -415 43 -46 75 -85 70 -88 -4 -3 -26 2 -48 10 -22 8
-68 23 -102 32 -96 28 -170 68 -240 132 -36 33 -71 59 -78 59 -8 0 -41 23 -74
50 -61 51 -75 57 -86 41 -10 -17 53 -78 134 -130 66 -42 91 -66 91 -86 0 -10
-34 -12 -71 -4 -26 6 -56 22 -74 41 -16 16 -88 78 -160 137 -71 60 -136 115
-144 124 -16 20 -41 22 -41 3 0 -14 110 -122 193 -188 53 -43 59 -65 22 -74
-20 -5 -33 1 -63 28 -21 19 -60 49 -87 68 -28 18 -61 44 -75 57 -24 23 -135
125 -235 217 -27 25 -55 46 -62 46 -26 0 -25 -24 3 -48 33 -27 186 -167 248
-225 l41 -38 -35 4 c-35 5 -129 36 -185 61 -83 38 -145 56 -190 56 -57 0 -70
6 -79 37 -4 14 -21 26 -44 33 -20 7 -54 25 -74 41 -20 16 -43 29 -51 29 -7 0
-23 11 -35 25 -26 30 -52 33 -52 5z M3615 7549 c-11 -17 1 -21 87 -29 46 -5
96 -13 112 -19 32 -13 59 0 40 19 -30 30 -224 54 -239 29z M5665 7469 c-5 -8
1 -20 17 -33 14 -12 45 -38 70 -58 39 -33 88 -51 88 -32 0 9 -42 43 -75 60
-16 9 -44 30 -61 46 -23 22 -34 26 -39 17z M5900 7298 c0 -13 92 -106 197
-201 55 -50 103 -63 103 -29 0 23 -74 94 -125 120 -22 11 -49 30 -60 42 -20
23 -99 80 -109 80 -3 0 -6 -6 -6 -12z M6755 5370 c-9 -14 3 -173 19 -265 24
-129 34 -233 51 -510 38 -608 38 -595 21 -639 -9 -23 -18 -84 -20 -136 -9
-187 -25 -326 -41 -370 -9 -25 -18 -52 -21 -60 -6 -22 11 -44 30 -37 13 5 16
22 16 87 0 45 4 89 10 99 40 76 65 799 40 1151 -16 208 -49 499 -65 562 -8 32
-15 74 -15 93 0 33 -12 46 -25 25z M6700 2156 c0 -19 5 -38 10 -41 6 -3 10
-14 10 -23 0 -10 19 -46 42 -81 23 -35 54 -102 70 -148 39 -118 96 -194 228
-310 117 -102 174 -148 200 -160 8 -3 36 -24 61 -45 46 -38 89 -50 89 -24 0 8
-24 29 -52 47 -73 46 -211 163 -226 191 -7 13 -29 34 -48 48 -53 36 -86 84
-89 130 -2 31 -12 50 -50 92 -26 29 -59 71 -73 93 -14 22 -36 53 -49 69 -36
43 -66 106 -72 151 -5 32 -11 41 -28 43 -20 3 -23 -1 -23 -32z M943 4997 c-30
-9 -62 -32 -115 -83 -145 -142 -179 -183 -263 -318 -11 -18 -30 -45 -42 -60
-23 -29 -31 -66 -14 -66 5 0 56 60 112 133 57 72 141 171 188 220 47 48 87 91
90 96 10 14 49 31 73 31 14 0 37 -13 54 -31 16 -17 52 -49 79 -71 78 -61 201
-186 218 -221 78 -160 132 -408 167 -772 10 -108 31 -219 51 -275 6 -19 13
-41 15 -48 8 -28 35 -22 82 17 26 23 51 41 55 41 17 0 4 -40 -31 -90 -55 -79
-107 -177 -125 -235 -42 -135 -50 -255 -57 -925 -4 -432 -10 -658 -18 -685 -6
-22 -12 -62 -12 -90 0 -55 -38 -257 -65 -350 -17 -56 -41 -114 -108 -255 -14
-30 -53 -120 -86 -200 -36 -86 -81 -174 -110 -215 -85 -121 -89 -125 -126
-125 -28 0 -44 11 -95 63 -34 34 -68 75 -77 92 -27 50 -90 139 -118 165 -37
35 -75 93 -149 228 -76 140 -96 186 -96 222 0 15 -12 58 -26 96 -14 38 -32 97
-39 132 -24 108 -56 235 -71 277 -24 72 -62 298 -68 412 -3 61 -13 158 -20
215 -23 165 -29 480 -17 963 11 456 12 461 54 595 8 25 20 67 26 95 7 27 18
57 25 65 8 8 19 33 26 55 7 22 16 45 20 50 4 6 30 53 58 105 27 52 60 114 73
137 24 43 21 66 -5 44 -30 -25 -120 -177 -136 -230 -10 -30 -24 -59 -32 -65
-23 -17 -66 -109 -82 -173 -8 -32 -24 -89 -36 -127 -25 -79 -24 -37 -17 -931
3 -369 9 -614 16 -655 7 -36 14 -130 17 -210 3 -80 9 -156 14 -170 5 -14 11
-45 14 -70 3 -25 16 -85 30 -135 14 -49 26 -100 26 -111 0 -12 6 -44 14 -70 8
-27 22 -78 31 -114 9 -36 21 -76 27 -90 5 -14 18 -65 29 -113 10 -49 27 -100
37 -115 10 -15 45 -78 78 -140 37 -71 86 -146 131 -200 39 -47 85 -110 102
-141 42 -78 139 -175 196 -197 45 -17 48 -17 82 1 40 22 54 39 123 146 52 81
76 129 135 274 20 50 52 122 72 160 19 39 47 99 60 135 14 36 28 70 32 75 18
24 52 169 66 285 9 69 21 143 27 165 6 24 13 270 18 630 7 547 11 642 41 875
20 153 49 232 124 340 18 25 57 96 88 158 91 180 75 196 -68 67 -52 -47 -101
-85 -109 -85 -21 0 -53 117 -65 240 -16 160 -28 256 -46 360 -9 52 -20 122
-26 155 -28 167 -92 307 -180 392 -175 169 -248 237 -270 249 -28 15 -22 15
-76 1z M1246 4195 c-29 -29 -49 -60 -56 -87 -7 -24 -19 -59 -27 -78 -9 -19
-39 -93 -68 -165 -51 -126 -75 -182 -116 -273 -11 -24 -25 -42 -32 -39 -17 5
-38 106 -46 227 -11 161 -45 220 -126 220 -56 0 -134 -163 -195 -408 -6 -24
-16 -42 -22 -40 -11 4 -38 117 -62 261 -15 89 -39 126 -59 93 -7 -10 -22 -31
-35 -46 -26 -33 -27 -63 -7 -180 8 -47 19 -132 25 -190 15 -166 19 -186 45
-214 13 -14 26 -35 30 -46 18 -56 82 7 120 118 64 187 110 284 133 280 9 -2
18 -10 18 -18 7 -56 38 -231 56 -313 19 -86 26 -102 55 -128 19 -16 42 -29 51
-29 22 0 74 53 97 98 27 56 105 262 130 347 47 162 95 312 120 375 30 76 69
245 61 266 -10 26 -45 14 -90 -31z M980 3065 c-25 -7 -68 -20 -96 -28 -143
-40 -359 -200 -413 -305 -26 -51 -27 -82 -1 -129 11 -21 20 -43 20 -50 0 -16
63 -33 121 -33 49 0 157 -33 227 -70 49 -25 82 -80 82 -133 0 -46 -15 -57 -83
-57 -48 0 -77 8 -151 41 -72 33 -96 39 -116 32 -20 -7 -25 -15 -25 -43 0 -32
4 -36 55 -62 30 -15 73 -47 96 -72 37 -41 46 -46 85 -46 96 0 267 120 290 202
18 68 -1 154 -52 236 -8 13 -36 35 -64 49 -110 56 -185 106 -185 123 0 17 38
37 113 60 36 11 84 10 170 -6 22 -4 49 -1 68 6 41 17 107 95 115 135 8 42 -24
117 -60 140 -35 23 -139 28 -196 10z M1172 2078 c-33 -54 -114 -264 -148 -382
-29 -101 -58 -122 -159 -111 -54 5 -68 10 -74 27 -10 27 4 116 29 192 11 34
20 87 20 122 0 56 -3 65 -26 83 -33 26 -60 26 -118 2 -68 -30 -83 -61 -132
-281 -19 -86 -27 -156 -31 -280 l-5 -165 33 -50 c44 -65 81 -73 102 -23 8 18
17 60 21 93 4 33 11 64 17 70 8 8 60 22 157 41 53 11 72 -15 72 -95 0 -80 13
-102 81 -136 37 -19 54 -23 68 -16 19 10 51 68 51 93 0 7 18 64 40 127 31 90
46 120 74 146 l35 32 -21 56 c-20 55 -20 59 -5 139 17 87 14 294 -5 331 -15
29 -54 21 -76 -15z M3467 7214 c-13 -13 5 -24 39 -24 24 0 34 5 34 15 0 10
-10 15 -33 15 -19 0 -37 -3 -40 -6z M3445 7040 c-11 -18 14 -30 67 -30 43 0
69 13 54 27 -13 13 -113 15 -121 3z M4910 7021 c0 -5 7 -14 15 -21 8 -7 15
-17 15 -22 0 -5 9 -21 20 -36 11 -15 27 -56 36 -92 20 -79 24 -87 36 -66 21
37 -27 159 -88 227 -18 20 -34 25 -34 10z M4287 6922 c-6 -56 -4 -79 8 -102 9
-17 20 -30 26 -30 20 0 20 28 0 80 -11 29 -18 56 -16 60 2 4 1 20 -4 36 -6 24
-9 17 -14 -44z M3491 6947 c-15 -19 -4 -27 36 -27 37 0 43 14 14 30 -26 13
-36 13 -50 -3z M4440 6530 c0 -22 53 -55 76 -46 24 9 15 25 -26 46 -48 25 -50
25 -50 0z M4002 5174 c3 -17 136 -74 170 -74 23 0 23 23 1 41 -54 45 -178 68
-171 33z M3885 5060 c-11 -18 5 -30 38 -29 45 1 80 12 85 27 5 15 -114 17
-123 2z M4186 4479 c-15 -11 -46 -31 -69 -44 -105 -56 -128 -75 -94 -75 35 0
217 110 217 131 0 16 -26 10 -54 -12z M4097 4144 c-43 -24 -23 -35 51 -28 90
8 97 10 82 29 -16 20 -96 19 -133 -1z"/></g>
</svg>