<svg xmlns="http://www.w3.org/2000/svg" viewBox="0 0 800 1012">
<rect width="800" height="1012" fill="#ffffff"/>
<g transform="translate(0,1012) scale(0.1,-0.1)" fill="#000000" stroke="none"><path d="M695 10064 c33 -30 76 -65 95 -78 19 -13 51 -40 69 -60 19 -20 39
-36 43 -36 5 0 86 -55 181 -122 168 -120 198 -138 282 -173 22 -9 68 -30 102
-46 55 -26 126 -48 206 -64 39 -8 26 -21 -41 -41 -61 -18 -346 -37 -557 -37
-156 0 -448 29 -530 53 -22 6 -59 15 -82 20 -48 10 -225 101 -263 134 -14 12
-43 34 -65 49 -23 15 -58 45 -80 67 -21 22 -43 40 -47 40 -4 0 -8 -18 -8 -40
0 -22 4 -40 8 -40 4 0 35 -23 67 -51 114 -96 286 -202 370 -227 23 -7 32 -17
41 -49 7 -22 19 -54 28 -71 9 -17 16 -42 16 -56 0 -14 4 -27 9 -30 4 -3 11
-27 14 -53 3 -26 31 -124 61 -216 31 -92 56 -180 56 -194 0 -15 11 -59 25
-100 14 -40 30 -96 35 -125 5 -29 17 -78 26 -108 21 -72 39 -137 65 -235 12
-44 25 -84 29 -90 5 -5 13 -35 19 -65 19 -102 39 -185 64 -265 24 -77 44 -140
178 -555 33 -102 67 -214 75 -250 8 -36 30 -105 48 -155 31 -83 53 -146 104
-300 11 -33 27 -89 37 -125 41 -155 55 -206 64 -225 5 -11 12 -33 15 -50 7
-48 27 -117 42 -150 7 -16 22 -61 34 -100 11 -38 24 -79 29 -90 21 -46 41
-107 41 -123 0 -9 6 -29 14 -43 7 -15 24 -60 36 -100 13 -41 36 -101 52 -134
15 -33 28 -69 28 -80 0 -11 7 -29 15 -39 8 -11 15 -28 15 -38 0 -9 6 -32 14
-50 8 -18 24 -67 36 -108 13 -41 26 -79 29 -85 4 -5 15 -37 25 -70 33 -108
107 -321 126 -360 5 -11 18 -42 30 -70 12 -27 25 -59 31 -70 10 -22 56 -158
93 -275 13 -41 40 -122 61 -180 20 -58 42 -125 49 -150 8 -25 35 -103 61 -175
25 -71 58 -164 72 -205 14 -41 32 -87 39 -102 8 -15 14 -36 14 -47 0 -11 6
-32 14 -48 16 -32 46 -133 46 -155 0 -14 24 -76 51 -133 18 -38 80 -227 99
-303 4 -18 12 -38 18 -45 5 -7 13 -28 17 -47 4 -19 11 -39 15 -45 4 -5 18 -41
30 -80 12 -38 29 -84 36 -102 8 -17 14 -35 14 -41 0 -5 14 -34 30 -65 17 -31
30 -67 30 -80 0 -13 7 -32 15 -43 8 -10 15 -30 15 -42 0 -13 6 -36 14 -50 19
-36 84 -193 110 -267 11 -33 29 -71 38 -85 10 -13 18 -33 18 -43 0 -26 68
-164 84 -170 7 -3 16 -19 19 -37 6 -26 42 -118 77 -195 5 -11 23 -54 39 -95
16 -41 45 -111 65 -155 20 -44 36 -90 36 -101 0 -12 7 -27 15 -34 8 -7 15 -18
15 -26 0 -13 188 -389 250 -499 36 -63 98 -178 127 -232 l17 -33 122 0 122 0
-39 96 c-21 53 -39 104 -39 113 0 19 24 44 53 54 9 4 54 31 100 60 45 30 100
62 122 72 22 10 54 28 70 40 59 42 84 50 99 34 13 -13 57 -127 125 -319 16
-47 35 -100 42 -118 l13 -32 614 0 c581 0 614 1 607 18 -16 39 -55 166 -55
180 0 8 -7 35 -15 61 -8 25 -29 93 -46 151 -17 58 -35 116 -40 130 -4 14 -22
75 -38 135 -17 61 -40 142 -52 180 -11 39 -25 88 -29 110 -5 22 -20 74 -34
116 -14 42 -34 114 -46 160 -12 46 -34 122 -50 169 -29 86 -59 204 -85 340 -8
41 -24 109 -36 150 -11 41 -29 116 -40 165 -10 50 -24 110 -30 135 -39 161
-105 483 -115 565 -4 32 -17 93 -30 133 -13 41 -24 96 -24 121 0 25 -5 75 -10
111 -6 36 -15 101 -20 145 -5 44 -17 121 -25 170 -50 280 -58 342 -80 590 -8
99 -20 223 -25 275 -17 156 -30 333 -41 554 -11 217 -7 256 27 256 9 0 30 6
47 14 18 8 50 22 72 31 41 16 150 86 462 297 39 26 102 82 140 124 37 41 81
83 98 94 16 10 48 37 70 60 22 22 73 68 113 100 58 48 80 60 108 60 20 0 55
11 79 25 42 25 47 25 241 25 110 0 215 1 234 1 81 1 107 0 142 -6 32 -6 40 -3
73 27 l37 34 -16 54 c-9 29 -16 66 -16 82 0 34 -45 212 -65 253 -7 17 -19 44
-25 60 -6 17 -64 117 -128 223 -64 106 -126 208 -138 228 -11 19 -30 43 -42
55 -49 45 -10 62 50 21 24 -16 54 -33 68 -37 42 -13 148 -64 155 -75 8 -13 42
-13 50 0 10 16 -52 65 -113 89 -61 24 -99 40 -202 89 -36 17 -96 45 -135 63
-38 18 -95 49 -125 69 -63 43 -203 187 -240 246 -24 40 -102 94 -135 94 -9 0
-48 17 -88 39 -119 64 -244 126 -387 191 -74 34 -142 68 -150 75 -43 38 -168
85 -255 95 -49 6 -137 22 -195 36 -155 35 -190 43 -237 50 -39 6 -43 9 -43 34
0 15 -8 38 -19 51 -16 21 -41 88 -41 112 0 9 33 9 45 -1 6 -4 28 -14 50 -21
22 -7 54 -19 70 -26 132 -55 177 -66 190 -45 8 12 -32 36 -75 45 -19 4 -44 14
-55 21 -11 8 -29 14 -41 14 -11 0 -63 20 -115 44 -52 24 -128 53 -169 65 -41
11 -100 28 -130 36 -30 9 -66 25 -80 36 l-25 20 38 -6 c45 -7 77 1 77 20 0 7
-23 30 -50 50 -49 36 -120 113 -120 131 0 16 -79 94 -95 94 -8 0 -15 -8 -15
-18 0 -18 60 -104 108 -155 35 -37 19 -55 -32 -36 -50 18 -78 48 -125 132 -22
40 -49 81 -60 91 -25 22 -49 12 -28 -12 25 -31 69 -130 63 -141 -13 -21 -33
-11 -78 38 -25 27 -71 62 -103 77 -36 18 -61 37 -66 52 -9 24 -10 24 -29 7
-42 -38 -24 -63 83 -116 48 -24 75 -44 89 -69 12 -19 30 -45 41 -57 19 -22 19
-24 3 -67 -10 -25 -15 -54 -11 -65 7 -25 -22 -37 -44 -17 -9 8 -44 20 -79 27
-55 12 -64 11 -79 -3 -13 -14 -14 -20 -4 -32 14 -17 94 -36 152 -36 71 0 131
-42 178 -124 20 -35 21 -47 15 -131 -4 -51 -10 -99 -14 -106 -6 -9 -36 -12
-103 -11 -73 1 -98 -2 -107 -13 -10 -12 -10 -18 0 -30 16 -20 60 -19 145 4 84
22 113 19 174 -22 67 -45 181 -167 181 -194 0 -17 -68 -16 -145 2 -39 10 -82
13 -121 9 -56 -6 -63 -4 -77 16 -15 21 -24 23 -109 24 -66 1 -115 -5 -168 -20
-57 -15 -91 -19 -140 -15 -61 6 -65 8 -68 32 -3 22 5 33 42 60 58 41 59 57 4
61 l-43 3 3 64 c3 83 -19 111 -85 111 -36 0 -43 3 -43 19 0 12 17 31 43 48
l42 29 -3 114 c-3 105 -6 119 -36 179 -30 59 -41 93 -66 206 -5 23 -18 36 -54
55 -50 27 -79 51 -108 90 -21 28 -13 53 16 46 11 -2 55 -8 96 -12 43 -4 98
-17 129 -30 62 -28 81 -30 81 -10 0 21 -87 66 -140 72 -25 3 -74 12 -109 21
-61 14 -65 14 -84 -5 -16 -16 -24 -18 -42 -10 -27 12 -60 72 -51 94 7 17 5 17
120 2 10 -2 21 2 23 9 6 16 -54 41 -118 49 -38 5 -54 13 -68 33 -30 44 -32 60
-10 104 21 40 21 42 4 92 -10 27 -34 84 -52 125 -34 74 -34 77 -34 215 0 77 1
151 1 165 4 52 -1 317 -7 368 l-5 52 -245 0 -245 0 6 -27 c2 -16 8 -62 11
-105 4 -42 16 -109 27 -150 11 -40 24 -107 30 -148 5 -41 13 -91 18 -110 5
-19 16 -78 25 -130 16 -91 44 -203 67 -263 6 -17 7 -32 2 -37 -5 -5 -60 -5
-129 1 -66 6 -149 12 -185 14 -101 6 -299 24 -365 34 -33 4 -80 5 -105 2 l-45
-7 30 -16 c43 -22 243 -49 435 -58 220 -11 325 -24 445 -56 55 -14 136 -32
180 -41 81 -15 125 -40 125 -72 0 -9 9 -29 20 -46 11 -16 20 -37 20 -46 0 -9
7 -22 16 -29 8 -8 21 -27 28 -45 23 -54 123 -154 162 -161 43 -8 52 -21 22
-34 -17 -8 -40 -7 -88 5 -36 9 -85 20 -110 25 -25 5 -79 20 -120 33 -41 14
-88 28 -105 32 -46 10 -62 48 -25 58 11 3 20 10 20 16 0 16 -37 13 -64 -4 -33
-22 -122 -10 -137 17 -9 17 -5 21 30 35 23 9 41 20 41 25 0 4 -22 8 -50 8 -38
0 -54 -5 -70 -22 -11 -12 -20 -25 -20 -30 0 -13 -45 -9 -78 8 -18 8 -32 19
-32 23 0 13 64 69 88 76 12 3 22 13 22 21 0 27 -53 14 -126 -31 l-73 -46 -66
11 c-37 6 -75 8 -84 5 -10 -3 -38 2 -62 11 -24 9 -112 22 -196 30 -151 13
-198 24 -190 47 2 7 17 16 33 21 51 15 79 34 82 55 4 26 3 26 -49 -4 -24 -14
-55 -25 -69 -25 -14 0 -38 -7 -54 -15 -15 -8 -35 -15 -42 -15 -8 0 -25 -6 -37
-14 -26 -16 -147 -28 -166 -17 -21 14 -3 31 32 31 18 0 41 6 52 14 11 7 36 16
55 20 20 3 43 15 53 26 22 26 8 26 -69 0 -32 -11 -99 -23 -149 -26 -73 -5
-100 -12 -144 -35 -39 -21 -76 -31 -125 -35 -73 -7 -96 -16 -96 -40 0 -19 79
-18 107 1 20 14 123 45 151 45 7 0 24 -12 38 -27 28 -30 23 -30 231 -19 94 4
149 3 162 -4 11 -5 55 -13 98 -16 60 -5 95 -14 153 -41 89 -42 212 -83 249
-83 14 0 43 -5 65 -11 34 -9 41 -8 61 11 21 20 27 21 79 11 31 -6 64 -15 74
-20 10 -5 43 -13 73 -16 86 -11 126 -33 143 -80 69 -186 101 -260 123 -287 24
-27 42 -128 43 -230 0 -83 -3 -99 -17 -107 -10 -5 -70 -12 -133 -16 -63 -4
-132 -11 -154 -17 -21 -5 -145 -15 -275 -23 -130 -7 -252 -18 -271 -24 -19 -6
-55 -11 -79 -11 -45 0 -60 2 -278 42 -99 17 -127 19 -148 10 -14 -7 -39 -12
-55 -12 -47 0 -47 -30 4 -182 25 -74 46 -142 46 -150 0 -9 7 -21 15 -28 8 -6
21 -37 30 -67 9 -31 39 -103 66 -160 27 -56 49 -109 49 -116 0 -7 4 -17 9 -23
5 -5 31 -52 59 -104 27 -52 69 -131 92 -175 24 -44 50 -93 58 -110 9 -16 32
-55 52 -85 20 -30 59 -98 85 -150 27 -52 70 -132 97 -176 26 -45 48 -86 48
-91 0 -4 15 -31 33 -59 18 -28 49 -77 67 -110 19 -32 51 -80 72 -105 21 -25
38 -48 38 -52 0 -8 99 -149 110 -157 10 -7 134 -194 203 -305 31 -49 69 -103
84 -120 16 -16 50 -60 75 -96 49 -69 125 -147 191 -196 21 -15 60 -45 87 -65
27 -21 52 -38 54 -38 3 0 60 -32 128 -70 68 -39 142 -77 166 -86 l42 -17 0
-61 c0 -33 7 -90 14 -126 8 -36 17 -101 21 -145 4 -44 12 -88 17 -98 10 -20
22 -77 42 -212 8 -49 19 -115 26 -145 29 -134 40 -189 45 -240 4 -30 18 -95
31 -145 13 -49 24 -101 24 -115 0 -14 11 -70 25 -125 14 -55 30 -129 35 -165
6 -36 17 -94 25 -130 8 -36 28 -128 45 -205 17 -77 35 -155 41 -172 5 -18 14
-54 19 -80 5 -27 14 -74 21 -106 15 -78 9 -84 -116 -97 -98 -11 -256 -40 -325
-60 -42 -12 -100 -13 -118 -1 -7 4 -17 23 -22 42 -32 123 -61 229 -74 268 -28
88 -68 227 -87 306 -11 44 -26 103 -34 131 -8 28 -15 68 -15 89 0 33 -9 48
-65 109 -90 97 -90 98 -217 216 -63 58 -129 127 -147 153 -19 27 -52 57 -73
68 -21 11 -38 25 -38 31 0 8 -5 7 -15 -2 -15 -16 -4 -66 56 -265 30 -100 35
-119 63 -230 14 -55 39 -143 56 -195 27 -84 50 -177 95 -375 7 -33 17 -73 23
-90 5 -16 18 -59 27 -95 10 -36 30 -103 46 -150 15 -47 31 -104 34 -127 4 -24
11 -45 16 -49 5 -3 9 -18 9 -34 0 -16 4 -31 9 -35 5 -3 12 -19 16 -35 4 -17
20 -56 35 -87 35 -70 50 -143 29 -143 -15 0 -49 53 -49 76 0 17 -40 135 -50
149 -4 6 -10 24 -14 40 -4 17 -13 44 -21 60 -42 99 -75 184 -81 210 -6 28 -34
113 -89 277 -13 37 -30 80 -39 95 -22 40 -56 148 -56 180 0 15 -14 52 -30 82
-22 39 -30 68 -30 102 0 35 -11 71 -40 132 -21 46 -44 102 -49 123 -5 22 -21
71 -36 109 -49 130 -77 210 -85 243 -4 18 -15 43 -24 57 -9 13 -16 34 -16 45
0 28 -77 254 -106 312 -13 26 -24 58 -24 72 0 14 -4 28 -10 31 -5 3 -10 16
-10 28 0 21 -41 127 -81 212 -10 22 -19 56 -19 75 0 20 -4 40 -9 45 -5 6 -20
50 -35 99 -14 49 -37 103 -51 122 -14 18 -25 41 -25 51 0 11 -7 28 -15 39 -8
10 -15 28 -15 39 0 11 -6 29 -14 40 -7 11 -16 36 -19 55 -6 43 -38 133 -66
188 -12 23 -21 49 -21 59 0 10 -6 27 -13 38 -13 21 -29 68 -72 219 -14 50 -29
94 -35 100 -5 5 -10 19 -10 31 0 11 -9 45 -21 75 -12 30 -28 73 -36 95 -8 22
-18 44 -23 50 -4 5 -10 30 -13 55 -3 25 -15 72 -27 105 -12 33 -26 78 -31 100
-17 84 -38 158 -48 168 -6 6 -11 19 -11 29 0 10 -9 46 -20 80 -11 35 -28 86
-37 113 -9 28 -20 54 -24 60 -5 5 -9 17 -9 26 0 10 -5 30 -12 46 -6 15 -17 51
-24 78 -6 28 -21 75 -33 105 -12 30 -33 98 -47 150 -14 52 -29 104 -33 115 -5
11 -19 54 -31 95 -12 41 -25 84 -29 95 -21 55 -34 96 -50 155 -10 36 -24 77
-31 90 -7 14 -19 50 -26 80 -7 30 -20 80 -29 110 -9 30 -22 78 -27 105 -6 28
-16 66 -23 85 -7 19 -20 62 -30 95 -10 33 -23 78 -30 100 -7 22 -23 83 -35
135 -12 52 -25 100 -30 105 -4 6 -13 42 -20 80 -7 39 -21 90 -31 114 -11 24
-19 59 -19 77 0 19 -6 51 -14 71 -8 21 -17 56 -21 77 -4 22 -13 49 -21 60 -8
11 -14 30 -14 42 0 12 -6 35 -14 51 -18 35 -46 129 -46 155 0 10 -6 31 -14 46
-20 40 -26 108 -12 128 10 12 23 15 57 11 196 -22 252 -29 304 -39 102 -19
249 -21 325 -4 47 11 91 14 142 10 117 -10 256 17 344 67 109 62 134 82 134
107 0 23 -3 24 -45 20 -34 -4 -57 1 -102 22 -32 15 -76 33 -98 40 -43 14 -126
57 -179 93 -95 64 -303 243 -406 349 -54 57 -71 68 -98 68 -17 0 -32 -3 -32
-8 0 -9 99 -113 165 -172 108 -98 262 -227 304 -255 32 -21 39 -31 27 -33 -27
-6 -158 65 -222 119 -32 28 -68 55 -79 60 -42 20 -150 99 -225 166 -32 28 -77
63 -98 77 -22 14 -43 30 -47 36 -3 5 -25 10 -48 10 l-42 0 60 -56z m2810
-2474 c122 8 497 4 725 -8 217 -11 340 -27 455 -61 16 -5 57 -17 90 -27 33
-10 91 -33 130 -52 76 -38 232 -140 254 -166 7 -9 17 -16 22 -16 15 0 119 -80
228 -175 56 -50 117 -101 135 -115 17 -14 50 -43 72 -65 21 -22 54 -52 72 -68
17 -15 32 -33 32 -41 0 -21 -40 -108 -66 -143 -13 -17 -28 -43 -33 -56 -11
-29 -94 -101 -200 -172 -104 -71 -117 -79 -201 -123 -41 -22 -95 -52 -120 -66
-25 -14 -50 -26 -56 -26 -10 0 -109 -51 -244 -126 -24 -14 -75 -36 -112 -49
-37 -13 -75 -29 -85 -34 -36 -19 -86 -41 -96 -41 -5 0 -27 -14 -48 -31 l-39
-31 -73 26 c-39 14 -108 30 -151 35 -55 7 -87 16 -105 30 -14 12 -46 32 -71
45 -73 39 -251 192 -322 277 -21 24 -55 64 -76 89 -57 67 -102 127 -102 135 0
4 -12 24 -27 44 -30 38 -35 47 -87 144 -68 125 -76 142 -76 149 0 4 -11 31
-24 60 -39 84 -96 262 -96 299 0 19 -5 50 -10 69 -15 49 -22 227 -10 249 7 14
30 22 87 30 42 6 79 14 82 17 3 3 24 2 46 -2 22 -5 67 -7 100 -4z m-378 -133
c7 -54 20 -126 29 -160 9 -34 21 -89 26 -122 6 -33 13 -64 18 -70 4 -5 11 -27
14 -49 4 -21 14 -54 23 -75 9 -20 19 -45 24 -56 4 -11 18 -47 30 -80 13 -33
34 -74 46 -91 13 -17 23 -37 23 -44 0 -13 45 -92 109 -190 88 -136 301 -374
362 -405 16 -9 29 -20 29 -25 0 -11 95 -84 147 -112 125 -68 148 -78 187 -78
46 0 146 -38 146 -55 0 -18 -39 -65 -54 -65 -7 0 -20 -8 -30 -19 -10 -11 -37
-21 -69 -24 -29 -4 -97 -13 -152 -22 -98 -16 -99 -15 -129 6 l-30 22 -55 -29
c-54 -28 -60 -29 -191 -27 -140 2 -155 5 -330 63 -176 59 -268 116 -428 265
-132 123 -229 225 -305 320 -125 158 -150 195 -214 320 -9 17 -26 44 -39 62
-13 17 -42 69 -65 115 -22 46 -49 99 -60 118 -10 19 -30 60 -44 90 -14 30 -30
62 -34 70 -16 27 -70 164 -77 195 -4 17 -13 39 -19 50 -7 11 -15 49 -19 84
l-6 64 53 -7 c129 -16 205 -18 281 -8 44 6 185 19 311 28 127 10 255 23 285
30 30 6 86 11 125 10 l70 -1 12 -98z m-1209 71 c5 -7 14 -33 20 -58 13 -53 39
-133 58 -177 8 -17 14 -40 14 -51 0 -12 4 -23 9 -27 5 -3 13 -20 16 -38 4 -17
13 -39 19 -47 7 -8 20 -35 30 -60 17 -42 78 -177 95 -210 4 -8 25 -46 46 -85
21 -38 47 -87 57 -107 10 -20 23 -40 29 -43 6 -4 19 -26 30 -49 24 -53 120
-202 141 -218 8 -7 23 -24 32 -38 43 -65 265 -294 376 -387 121 -102 143 -123
137 -130 -20 -20 -312 208 -457 358 -106 109 -293 377 -354 507 -14 29 -34 64
-45 78 -11 14 -23 39 -26 56 -4 16 -22 58 -40 92 -17 33 -45 97 -60 141 -15
44 -35 96 -45 115 -42 80 -143 367 -135 381 9 13 41 11 53 -3z m3577 -137 c28
-10 75 -29 107 -43 31 -14 67 -29 80 -33 12 -4 25 -11 28 -15 3 -3 37 -16 75
-29 43 -13 76 -30 84 -42 11 -19 10 -20 -11 -14 -13 4 -41 15 -64 26 -22 10
-48 19 -57 19 -10 0 -20 7 -23 15 -4 8 -12 15 -19 15 -7 0 -46 14 -86 31 -41
17 -83 33 -94 36 -39 10 -95 37 -95 45 0 12 20 9 75 -11z m311 -665 c11 -29
-83 -132 -103 -112 -8 7 25 87 44 109 19 20 52 22 59 3z m71 -98 c36 -33 29
-47 -24 -50 -47 -3 -51 -7 -38 -39 5 -14 -42 -33 -136 -53 -14 -3 -43 -17 -63
-31 -21 -14 -47 -25 -57 -23 -16 3 -14 8 14 40 30 34 56 46 139 63 18 3 37 19
53 45 20 32 63 68 84 70 3 0 15 -10 28 -22z m-787 -488 c0 -5 -11 -12 -25 -16
-14 -3 -29 -12 -33 -18 -11 -19 -113 -77 -317 -179 -247 -124 -252 -127 -275
-127 -38 0 -33 23 17 71 28 26 63 51 79 54 80 17 201 61 274 100 100 53 191
95 208 95 9 0 26 7 36 15 23 17 36 19 36 5z m-774 -433 c3 -8 -4 -34 -15 -59
-23 -55 -16 -103 29 -188 32 -61 58 -159 71 -265 4 -38 11 -84 14 -101 10 -46
-6 -48 -53 -9 -37 33 -70 44 -85 29 -7 -7 79 -94 93 -94 5 0 12 5 15 10 3 6
13 10 21 10 12 0 13 -24 8 -158 -6 -139 -5 -159 10 -171 23 -19 20 -70 -9
-135 -30 -68 -31 -92 -5 -131 34 -51 60 -151 60 -231 0 -88 -5 -93 -84 -70
-68 20 -130 21 -146 1 -20 -24 -4 -32 75 -37 99 -7 127 -29 123 -98 -3 -49 -3
-49 -73 -36 -30 6 -35 4 -35 -13 0 -25 14 -34 65 -41 l40 -5 6 -90 c4 -49 16
-136 28 -192 11 -56 21 -115 21 -131 0 -17 9 -74 20 -129 12 -54 30 -152 40
-218 11 -66 26 -154 34 -195 29 -149 31 -230 7 -230 -4 0 -29 28 -56 61 -33
44 -49 74 -53 103 -2 23 -16 60 -30 84 -13 23 -28 57 -32 75 -9 35 -41 129
-106 312 -24 66 -52 163 -64 215 -27 125 -63 253 -90 315 -5 11 -11 40 -13 65
-8 77 -39 242 -58 309 -11 35 -19 90 -19 122 0 47 -6 67 -32 111 -18 29 -39
59 -45 66 -17 18 -17 20 15 66 38 55 37 128 -2 185 l-29 41 37 61 c20 33 36
63 36 66 0 3 -10 18 -21 35 -12 16 -18 33 -13 38 5 4 50 10 99 12 82 5 160 27
138 41 -14 8 -227 11 -250 3 -33 -12 -67 27 -58 67 17 79 17 155 -1 192 -20
42 -87 89 -116 82 -34 -9 -68 13 -68 45 0 25 3 28 33 28 17 0 45 -7 61 -15 32
-17 156 -21 156 -5 0 15 -30 26 -127 45 -78 16 -96 17 -117 6 -22 -12 -30 -11
-66 8 -22 11 -54 21 -71 21 -17 0 -45 6 -62 14 -18 8 -41 16 -51 18 -11 2 -21
9 -24 17 -5 15 14 13 93 -8 22 -6 72 -11 111 -11 63 0 73 3 95 26 25 27 43 28
138 8 35 -7 144 13 256 46 74 22 124 25 131 7z m-475 -3290 c35 -44 45 -65 54
-112 3 -22 17 -74 30 -115 13 -41 28 -97 34 -125 6 -27 18 -75 26 -105 9 -30
22 -82 30 -115 8 -33 21 -87 30 -120 8 -33 22 -91 29 -130 8 -38 22 -95 31
-125 10 -30 26 -84 36 -120 10 -36 34 -110 53 -165 19 -55 35 -110 36 -121 0
-12 9 -50 21 -85 11 -35 29 -91 39 -124 10 -33 37 -112 60 -175 42 -120 45
-160 10 -160 -20 0 -212 -96 -260 -130 -16 -11 -31 -20 -35 -20 -4 0 -34 -18
-67 -40 -61 -42 -98 -46 -98 -12 0 9 -13 42 -29 72 -15 30 -32 73 -36 95 -3
22 -15 54 -25 70 -9 17 -23 48 -30 70 -14 49 -52 146 -61 160 -3 6 -10 28 -13
50 -4 22 -11 54 -16 70 -36 127 -53 183 -61 205 -5 14 -13 45 -18 70 -8 37
-66 228 -109 355 -5 17 -18 53 -27 80 -9 28 -28 97 -41 154 -13 57 -33 118
-44 136 -11 18 -20 39 -20 47 0 20 -53 190 -91 294 -16 45 -27 88 -23 97 3 9
20 19 37 22 18 4 50 13 72 20 36 12 94 23 285 54 30 5 80 9 110 10 51 1 57 -2
81 -32z m-837 -531 c9 -19 16 -49 15 -68 -1 -33 -1 -33 -12 -8 -7 14 -20 37
-31 52 -18 27 -16 58 3 58 5 0 16 -15 25 -34z M3560 7437 c0 -18 43 -30 71
-22 33 11 15 30 -29 33 -31 2 -42 -1 -42 -11z M3545 7266 c-15 -11 -15 -13 -2
-25 19 -16 129 -11 134 6 7 21 -107 37 -132 19z M5065 7249 c-4 -6 0 -16 9
-22 8 -7 20 -23 26 -37 6 -14 20 -41 30 -60 29 -54 43 -136 38 -230 -3 -69 -8
-93 -27 -118 -27 -38 -14 -42 19 -7 22 23 25 38 31 148 8 146 5 169 -33 224
-15 23 -28 48 -28 55 0 12 -42 58 -53 58 -3 0 -9 -5 -12 -11z M4417 7148 c-6
-89 9 -148 37 -148 20 0 21 36 1 83 -8 20 -15 61 -15 92 0 85 -16 65 -23 -27z
M3587 7173 c-20 -19 -5 -33 38 -33 50 0 59 15 19 30 -30 12 -48 13 -57 3z
M4577 6753 c-22 -21 32 -73 76 -73 30 0 18 29 -23 55 -44 28 -44 28 -53 18z
M4120 5342 c-20 -7 -9 -22 30 -42 21 -11 48 -20 58 -20 10 0 27 -7 38 -15 24
-18 74 -20 74 -2 0 18 -32 47 -52 47 -9 0 -21 6 -27 14 -11 13 -98 26 -121 18z
M3995 5210 c-14 -23 9 -32 66 -27 62 5 83 13 74 28 -8 12 -132 12 -140 -1z
M4115 4639 c-4 -5 -19 -9 -33 -7 -19 2 -28 -2 -30 -14 -3 -13 3 -18 20 -18 21
1 68 31 68 44 0 10 -18 7 -25 -5z M4319 4611 c-13 -10 -49 -31 -79 -48 -86
-46 -120 -67 -120 -75 0 -41 248 93 250 135 0 13 -27 7 -51 -12z M4218 4263
c-47 -24 -32 -33 56 -33 86 0 108 9 86 35 -16 19 -105 18 -142 -2z M3000
10118 c0 -2 7 -21 15 -43 8 -22 14 -56 15 -75 0 -20 5 -41 12 -48 6 -6 13 -56
16 -119 l4 -108 65 -97 c35 -54 63 -105 61 -115 -3 -15 -18 -19 -108 -24 -58
-4 -106 -7 -107 -8 -8 -3 -1 -22 13 -36 14 -13 32 -15 113 -9 75 4 100 3 115
-8 17 -14 18 -16 1 -64 -26 -71 -15 -138 26 -159 20 -11 29 -23 29 -41 0 -15
16 -43 43 -72 59 -66 87 -108 87 -131 0 -14 9 -23 25 -27 30 -7 32 -25 6 -48
-17 -15 -27 -16 -87 -6 -112 18 -119 18 -119 -5 0 -24 61 -48 120 -46 58 2 89
-15 104 -54 15 -43 31 -45 31 -5 0 20 -5 30 -15 30 -18 0 -18 -1 -4 38 6 17
17 33 25 36 22 8 18 56 -4 56 -15 0 -42 36 -42 55 0 12 39 4 50 -10 8 -9 21
-13 36 -9 15 4 36 -2 59 -16 l35 -22 122 18 c117 16 125 16 197 -1 42 -10 110
-29 151 -43 71 -23 144 -43 235 -61 47 -9 146 -41 160 -51 6 -4 33 -10 61 -14
28 -3 68 -15 90 -25 22 -11 57 -22 78 -26 29 -6 56 -26 119 -86 52 -52 88 -79
103 -79 49 0 35 23 -50 83 -14 10 -26 27 -26 37 0 17 5 19 33 13 34 -6 62 -17
87 -32 8 -5 35 -19 60 -31 25 -11 52 -25 60 -29 49 -26 88 -42 110 -44 46 -4
34 18 -26 47 -78 38 -91 45 -142 74 -45 26 -121 48 -216 63 -33 5 -64 13 -70
18 -6 5 -31 12 -56 16 -25 4 -50 11 -57 17 -6 5 -33 13 -60 18 -26 4 -70 15
-98 24 -27 8 -70 20 -95 27 -25 6 -88 24 -140 39 -52 15 -129 38 -170 50 -169
50 -162 46 -202 109 -36 57 -90 173 -128 276 -65 178 -96 273 -121 370 -15 61
-35 135 -44 165 -9 30 -23 87 -31 125 -7 39 -16 82 -20 98 l-6 27 -264 0
c-145 0 -264 -1 -264 -2z M2870 9386 c0 -17 59 -56 84 -56 9 0 39 -11 66 -25
69 -35 99 -32 68 6 -17 20 -64 49 -80 49 -7 1 -31 9 -53 20 -48 23 -85 26 -85
6z M2876 9231 c-3 -5 0 -13 7 -18 52 -38 251 -93 270 -74 16 16 -1 29 -46 36
-48 7 -120 30 -159 51 -30 16 -64 18 -72 5z M1415 9199 c-27 -4 -89 -20 -137
-33 -49 -14 -100 -23 -115 -20 -32 6 -97 -29 -90 -49 6 -18 47 -21 66 -3 12
11 28 14 52 10 52 -9 288 67 297 95 4 12 -2 12 -73 0z M960 9030 c-14 -5 -46
-11 -72 -15 -26 -3 -57 -15 -70 -25 -21 -17 -22 -20 -7 -35 15 -16 19 -15 55
3 22 11 63 25 92 33 57 14 94 50 50 48 -13 0 -34 -4 -48 -9z M3250 8651 c0
-19 74 -90 114 -110 105 -50 202 -69 190 -36 -5 11 -32 24 -144 72 -19 8 -61
32 -92 54 -32 21 -60 39 -63 39 -3 0 -5 -9 -5 -19z M4050 8545 c0 -19 39 -56
102 -97 51 -33 62 -62 28 -73 -47 -15 -13 -35 60 -35 26 0 60 -6 75 -14 15 -8
41 -12 59 -9 21 3 68 -9 146 -37 63 -23 138 -50 165 -60 28 -10 72 -28 99 -40
27 -12 77 -26 110 -30 38 -5 89 -21 133 -43 51 -25 90 -37 144 -42 41 -4 82
-12 92 -17 10 -5 30 -11 45 -13 15 -2 77 -24 137 -49 61 -25 117 -46 126 -46
8 0 43 -14 78 -30 45 -22 87 -33 159 -41 53 -6 116 -19 140 -30 23 -10 48 -19
56 -19 7 0 23 -11 36 -25 13 -14 32 -25 42 -25 34 0 19 37 -34 84 -29 26 -66
58 -82 72 -16 14 -47 34 -70 45 -59 28 -155 113 -224 199 -81 101 -277 300
-297 300 -9 0 -18 7 -21 15 -7 16 -34 21 -34 5 0 -5 6 -13 13 -17 12 -8 37
-36 192 -213 50 -57 127 -142 173 -189 105 -109 106 -120 7 -82 -27 11 -75 27
-105 36 -95 29 -160 65 -233 131 -39 35 -77 64 -85 64 -8 0 -40 23 -72 50 -55
48 -83 60 -94 41 -8 -13 78 -90 162 -145 56 -37 72 -53 72 -72 0 -28 -5 -29
-77 -8 -40 12 -57 22 -63 40 -5 13 -15 24 -22 24 -12 1 -97 70 -267 218 -64
56 -67 57 -75 37 -4 -11 9 -30 41 -58 26 -23 66 -60 88 -82 23 -22 60 -55 83
-74 48 -39 53 -57 16 -64 -19 -3 -35 3 -58 22 -17 15 -62 49 -99 76 -38 26
-71 54 -74 62 -3 8 -17 20 -32 28 -14 8 -80 66 -146 130 -83 80 -126 114 -140
113 -11 -2 -20 -8 -20 -14 0 -10 153 -155 276 -259 70 -60 56 -70 -44 -31 -35
14 -68 26 -73 26 -5 0 -20 6 -34 13 -14 7 -50 22 -80 32 -30 11 -59 23 -64 27
-6 4 -33 8 -60 8 -72 0 -95 9 -102 36 -7 26 -31 44 -59 44 -9 0 -37 16 -62 35
-25 19 -51 35 -58 35 -6 0 -21 11 -33 25 -24 28 -62 34 -62 10z M3723 7803
c-21 -8 -15 -32 10 -37 12 -3 54 -7 92 -10 39 -2 83 -10 97 -17 15 -6 34 -9
44 -5 16 6 16 8 0 25 -10 10 -37 22 -61 26 -25 3 -47 10 -50 16 -6 9 -110 11
-132 2z M5844 7708 c-4 -7 8 -23 29 -40 20 -17 54 -45 74 -64 25 -22 48 -34
68 -34 l30 0 -45 40 c-25 22 -50 40 -56 40 -5 0 -25 16 -44 35 -37 38 -45 41
-56 23z M6090 7529 c0 -10 83 -91 217 -213 51 -47 91 -58 100 -29 6 18 -75
102 -120 125 -22 11 -69 44 -105 74 -64 52 -92 66 -92 43z M6983 5534 c-8 -21
5 -219 18 -266 15 -58 28 -184 44 -438 8 -129 19 -293 25 -365 16 -205 17
-386 0 -415 -9 -16 -16 -81 -21 -185 -9 -185 -25 -309 -45 -347 -24 -45 -11
-94 22 -81 10 4 14 26 14 83 0 43 7 96 15 119 13 37 33 225 28 261 -2 8 5 76
13 150 25 209 9 693 -37 1110 -11 102 -27 213 -34 247 -8 34 -15 80 -15 103 0
40 -15 54 -27 24z M924 5139 c-38 -11 -283 -260 -308 -313 -8 -18 -23 -39 -31
-46 -9 -8 -23 -27 -32 -44 -8 -17 -26 -42 -38 -56 -13 -14 -27 -38 -31 -53
-13 -55 22 -25 119 101 52 67 145 175 206 241 94 100 117 119 149 125 34 6 40
3 83 -41 25 -27 65 -61 89 -78 66 -46 218 -213 226 -248 3 -17 16 -52 27 -77
37 -83 82 -283 97 -425 6 -55 15 -124 20 -154 6 -30 10 -76 10 -103 0 -60 24
-192 53 -285 24 -80 48 -101 76 -67 22 26 81 74 91 74 17 0 -5 -47 -56 -122
-155 -229 -165 -298 -171 -1173 -3 -381 -8 -653 -14 -672 -6 -18 -14 -76 -19
-130 -9 -114 -44 -302 -64 -353 -7 -19 -19 -53 -26 -75 -13 -40 -34 -88 -103
-236 -20 -42 -43 -94 -50 -115 -36 -96 -90 -212 -116 -249 -15 -22 -47 -68
-71 -102 -23 -34 -51 -65 -61 -68 -48 -15 -143 74 -248 233 -26 40 -64 90 -82
110 -43 46 -81 98 -101 137 -48 91 -91 171 -98 180 -16 19 -50 120 -50 146 0
14 -12 57 -26 95 -14 38 -34 105 -45 149 -10 44 -24 98 -30 120 -36 140 -74
296 -90 380 -5 28 -14 120 -20 205 -5 85 -17 191 -25 235 -14 68 -16 164 -15
645 0 311 3 615 6 675 6 113 30 251 45 260 4 3 11 24 15 48 8 57 54 176 95
247 4 8 26 51 48 95 23 44 57 107 76 140 40 65 43 75 22 75 -28 0 -138 -173
-161 -254 -9 -30 -22 -57 -30 -60 -20 -7 -71 -113 -89 -182 -7 -33 -22 -84
-31 -114 -24 -80 -37 -229 -31 -355 3 -60 6 -337 7 -615 0 -278 5 -552 10
-610 6 -58 16 -186 24 -285 18 -224 26 -281 55 -375 12 -41 26 -97 30 -125 8
-55 26 -129 45 -190 8 -22 17 -56 20 -75 4 -19 11 -39 15 -45 4 -5 17 -54 29
-108 13 -62 30 -111 45 -130 13 -18 27 -44 32 -58 22 -62 121 -221 191 -304
41 -49 86 -111 98 -136 13 -25 52 -75 87 -112 94 -98 166 -120 224 -69 42 37
157 216 189 293 14 35 35 83 46 107 11 23 30 71 43 106 13 35 36 82 50 104 14
23 35 70 47 104 12 35 27 74 34 88 29 58 55 164 70 285 9 72 21 148 27 170 7
25 13 265 18 625 7 589 16 766 50 983 20 125 59 230 111 297 47 60 170 310
164 331 -4 11 -11 19 -16 19 -5 0 -53 -40 -106 -90 -97 -89 -143 -112 -143
-72 0 9 -6 29 -14 44 -8 15 -24 114 -36 220 -25 231 -75 543 -96 613 -17 52
-26 75 -64 162 -25 57 -112 152 -219 241 -35 29 -77 70 -93 90 -48 61 -89 73
-164 51z M1253 4307 c-36 -38 -52 -64 -57 -92 -3 -22 -19 -69 -35 -105 -16
-36 -44 -101 -62 -145 -18 -44 -52 -124 -76 -178 -24 -54 -43 -105 -43 -112 0
-16 -36 -39 -43 -28 -3 5 -8 31 -12 58 -4 28 -11 55 -15 60 -4 6 -10 60 -13
120 -8 169 -39 225 -127 225 -37 0 -67 -37 -103 -125 -16 -39 -33 -79 -39 -90
-6 -10 -17 -43 -24 -72 -8 -29 -20 -78 -28 -109 -24 -92 -43 -98 -57 -17 -50
292 -74 366 -102 319 -7 -10 -23 -32 -36 -48 -22 -27 -23 -33 -16 -126 4 -53
12 -108 17 -122 9 -22 18 -95 34 -275 5 -46 12 -67 34 -92 16 -17 31 -41 35
-52 9 -30 19 -26 59 21 24 27 44 67 57 113 12 38 24 75 28 80 4 6 24 54 45
107 21 53 46 100 55 103 20 8 44 -23 37 -49 -3 -10 -1 -29 4 -42 5 -13 14 -60
20 -106 5 -45 19 -120 31 -167 18 -75 26 -89 57 -113 19 -16 44 -28 54 -28 24
0 66 46 95 102 23 46 133 331 133 345 0 13 76 254 119 378 44 126 85 290 76
305 -15 24 -54 8 -102 -43z M930 3129 c-88 -28 -179 -73 -275 -135 -90 -59
-107 -74 -157 -136 -71 -87 -81 -128 -48 -193 11 -22 20 -45 20 -52 0 -19 43
-33 105 -33 62 0 165 -30 248 -71 50 -26 61 -37 81 -82 30 -64 25 -104 -13
-119 -46 -18 -121 -4 -213 40 -98 47 -105 48 -136 26 -16 -11 -22 -24 -20 -42
2 -21 17 -34 73 -63 42 -23 79 -51 93 -71 26 -38 43 -46 95 -47 51 -1 128 37
208 102 81 67 93 94 87 191 -4 59 -11 84 -37 130 -29 50 -41 61 -104 93 -105
52 -177 101 -177 118 0 16 78 55 110 55 10 0 22 5 25 10 8 12 112 13 119 1 10
-15 72 -22 102 -11 59 23 134 113 134 162 0 42 -31 103 -64 126 -43 30 -162
30 -256 1z M6924 2216 c-3 -14 1 -37 10 -54 9 -17 16 -37 16 -45 0 -8 14 -33
31 -57 38 -52 83 -152 93 -204 4 -21 24 -62 45 -90 21 -28 42 -58 47 -68 5 -9
38 -42 74 -73 36 -31 93 -82 128 -113 35 -30 84 -69 110 -85 26 -17 68 -48 93
-69 46 -38 99 -51 99 -25 0 6 -30 32 -67 57 -93 63 -204 157 -226 191 -10 15
-34 38 -54 50 -50 31 -93 94 -93 137 0 28 -11 47 -53 96 -88 102 -188 260
-194 309 -3 23 -10 48 -16 55 -15 19 -36 14 -43 -12z M1209 2148 c-22 -19 -44
-57 -74 -129 -37 -87 -94 -245 -107 -294 -17 -62 -41 -106 -64 -115 -21 -8
-160 -4 -175 6 -20 12 -7 118 27 219 7 22 16 69 19 105 6 57 4 68 -14 91 -29
37 -59 42 -122 20 -57 -20 -99 -66 -99 -106 0 -12 -4 -25 -9 -30 -8 -9 -41
-143 -61 -255 -5 -25 -12 -113 -16 -196 l-7 -151 33 -57 c31 -55 69 -84 91
-70 16 10 30 54 43 134 11 71 13 75 41 82 17 3 60 14 98 23 62 16 69 16 92 1
23 -15 25 -23 25 -90 0 -58 4 -79 20 -99 21 -27 95 -67 123 -67 19 0 54 51 63
90 3 14 22 77 42 140 35 110 53 141 98 166 17 10 18 14 5 45 -21 49 -25 145
-9 215 10 40 12 80 7 120 -4 32 -8 87 -8 121 -1 78 -26 111 -62 81z M7455
1740 c-11 -5 -37 -9 -57 -9 -34 -1 -38 -4 -38 -26 l0 -25 80 6 c82 7 82 7 195
-41 34 -15 172 -82 195 -95 8 -5 33 -17 55 -26 22 -10 50 -30 63 -46 29 -35
52 -37 52 -2 0 26 -18 50 -54 71 -26 15 -95 49 -116 57 -8 4 -33 17 -55 29
-84 48 -102 57 -169 82 -80 31 -123 38 -151 25z"/></g>
<rect x="14" y="14" width="772" height="984" fill="none" stroke="#000000" stroke-width="28"/>
</svg>