<svg xmlns="http://www.w3.org/2000/svg" viewBox="0 0 300 300" width="300" height="300">
<style>
  .ink { fill: #000; } .shade { fill: #8a8a8a; }
  @media (prefers-color-scheme: dark) { .ink { fill: #f0f0f0; } .shade { fill: #9a9a9a; } }
</style>
<g transform="translate(0,300) scale(0.1,-0.1)" stroke="none">
<g class="shade"><path d="M797 2633 c-4 -3 -7 -13 -7 -21 0 -7 -9 -25 -20 -39 -11 -14 -20 -36
-20 -48 0 -12 -11 -39 -25 -60 -14 -20 -24 -42 -22 -49 2 -6 -2 -17 -9 -24
-10 -9 -12 -30 -7 -73 4 -41 2 -59 -6 -59 -6 0 -11 14 -11 31 0 16 -4 28 -9
25 -9 -6 -17 -47 -25 -117 -2 -20 -6 -42 -10 -48 -4 -6 0 -14 8 -17 23 -9 20
-24 -4 -24 -16 0 -20 -7 -21 -37 -2 -47 -6 -104 -13 -163 -18 -160 -18 -269
-1 -370 9 -58 21 -109 25 -115 4 -5 17 -44 30 -85 12 -41 39 -104 61 -140 21
-36 45 -84 53 -107 14 -39 14 -43 0 -43 -9 0 -18 -9 -21 -20 -3 -11 -9 -17
-14 -14 -10 6 -58 -45 -59 -62 0 -7 9 -14 20 -17 24 -6 27 -32 4 -41 -21 -8
-34 1 -34 24 0 17 -3 18 -25 8 -22 -10 -23 -13 -11 -27 7 -9 16 -29 19 -46 3
-16 8 -41 12 -55 4 -14 8 -36 9 -50 1 -22 5 -25 31 -22 17 2 34 7 38 11 13 13
-4 42 -22 37 -26 -9 -41 8 -45 48 -3 29 0 39 16 47 12 7 23 7 27 2 3 -5 15
-13 26 -17 19 -8 19 -8 -2 -19 -25 -11 -32 -47 -9 -47 20 0 66 39 66 56 0 8 5
14 10 14 6 0 10 -4 10 -8 0 -12 63 -33 73 -23 5 5 -7 11 -27 15 -22 4 -36 13
-36 22 0 19 44 64 63 64 23 0 207 -90 207 -102 0 -4 -5 -10 -10 -13 -6 -4 -8
-11 -5 -16 10 -15 -24 -10 -50 7 -23 15 -25 15 -25 0 0 -9 5 -16 10 -16 6 0
10 -7 10 -15 0 -22 -8 -19 -42 15 -29 29 -48 38 -48 22 0 -5 14 -18 30 -30 37
-28 38 -43 4 -73 -14 -13 -33 -31 -42 -40 -9 -9 -25 -19 -36 -23 -15 -5 -16
-9 -6 -21 10 -12 8 -16 -15 -25 -14 -5 -23 -15 -20 -21 4 -6 14 -7 24 -4 9 4
21 8 28 9 17 3 29 16 15 16 -7 0 -12 7 -12 16 0 17 33 15 94 -7 31 -11 40 -11
70 3 19 9 43 14 55 11 12 -3 31 3 47 16 15 12 31 21 36 21 6 0 23 11 40 25 35
29 107 35 128 10 7 -8 19 -15 26 -15 8 0 14 -4 14 -10 0 -5 4 -10 10 -10 5 0
7 7 4 15 -4 8 1 17 10 21 18 7 47 -12 43 -28 -1 -6 6 -12 16 -13 9 -2 17 1 17
6 0 6 5 7 12 3 21 -13 92 -4 105 13 7 9 16 13 20 8 5 -4 2 -10 -4 -12 -29 -10
-13 -33 23 -33 19 0 33 4 29 9 -3 5 -1 12 4 15 5 3 11 -1 15 -9 6 -17 76 -21
76 -5 0 6 5 10 10 10 6 0 10 -7 10 -15 0 -8 5 -15 10 -15 6 0 10 9 10 20 0 11
-7 20 -15 20 -8 0 -15 5 -15 10 0 6 9 10 20 10 11 0 20 4 20 9 0 14 59 -11 84
-35 11 -12 43 -49 70 -82 27 -34 51 -60 53 -58 5 4 -63 135 -81 156 -26 31
-26 36 5 32 31 -5 35 -12 18 -29 -7 -7 -6 -12 5 -16 8 -3 18 -2 21 3 14 23 25
8 54 -83 10 -31 10 -45 1 -68 -15 -34 -10 -43 19 -34 28 8 35 38 19 82 -10 29
-10 37 0 40 16 6 15 18 -2 56 -19 42 -28 107 -15 107 6 0 8 -4 4 -9 -3 -5 0
-13 6 -17 8 -4 9 2 5 22 -3 18 0 36 9 48 15 19 15 19 29 1 19 -26 44 -12 52
29 3 20 10 36 14 36 33 0 54 82 28 108 -25 25 2 23 36 -3 20 -15 36 -22 36
-16 0 14 37 15 45 1 6 -10 45 -14 45 -6 0 3 -11 17 -25 32 -14 15 -25 33 -25
42 0 8 -11 27 -25 44 -14 16 -25 39 -25 51 1 22 1 22 23 -3 23 -26 96 -63 114
-58 6 2 33 -18 62 -44 28 -26 51 -44 51 -40 0 4 -13 30 -28 58 l-28 50 45 -11
c25 -5 56 -16 68 -23 19 -11 22 -10 17 3 -4 10 0 15 10 15 9 0 16 -8 16 -19 0
-24 12 -32 29 -21 20 12 70 -6 101 -35 15 -14 38 -25 53 -25 26 0 27 1 27 63
l0 63 -44 22 c-24 12 -46 22 -50 22 -13 0 -407 191 -455 220 -36 23 -56 29
-75 24 -20 -5 -25 -3 -21 8 4 10 -23 34 -89 77 -53 34 -114 78 -137 97 -22 19
-47 34 -55 34 -9 0 -14 11 -14 30 0 29 2 30 43 30 39 0 47 -4 76 -41 34 -42
146 -129 166 -129 7 0 20 -9 31 -21 42 -46 521 -301 592 -315 l32 -6 0 75 c0
69 -3 78 -27 105 -33 35 -64 52 -93 52 -12 0 -34 12 -49 26 -14 14 -58 56 -97
93 -39 37 -83 86 -98 109 -14 23 -31 42 -36 42 -6 0 -10 9 -10 20 0 11 -4 20
-10 20 -5 0 -9 8 -8 18 7 60 -42 146 -80 140 -15 -3 -17 8 -20 75 -2 59 -6 77
-17 77 -17 0 -20 16 -6 25 6 3 13 -1 18 -8 9 -16 56 -27 71 -18 31 19 102 87
102 96 0 7 -6 25 -14 41 -20 41 -23 66 -8 71 6 3 12 -2 12 -11 0 -8 5 -18 11
-22 29 -18 -36 153 -67 178 -17 14 -22 29 -22 69 0 55 -14 81 -34 61 -9 -9 -8
-18 2 -39 8 -16 16 -31 18 -35 2 -5 -4 -8 -12 -8 -25 0 -34 37 -29 114 3 47 1
66 -6 61 -6 -3 -11 -15 -11 -25 0 -14 -10 -20 -42 -25 -24 -4 -46 -13 -50 -19
-6 -8 -12 -8 -26 0 -25 16 -70 6 -83 -17 -5 -11 -17 -19 -25 -19 -15 0 -66
-35 -122 -85 -65 -56 -90 -78 -118 -107 -22 -22 -38 -29 -53 -25 -11 3 -37 1
-58 -3 -22 -5 -42 -5 -49 1 -7 6 -15 4 -23 -5 -10 -12 -17 -9 -41 16 -17 16
-30 32 -30 35 0 11 -132 204 -137 200 -6 -7 8 -37 18 -37 5 0 9 -6 9 -13 0 -6
16 -45 35 -84 39 -81 46 -132 18 -129 -22 1 -30 -48 -12 -70 9 -11 8 -14 -4
-14 -9 0 -29 17 -44 38 -15 20 -30 39 -34 42 -3 3 -9 14 -13 25 -6 14 -10 16
-13 7 -5 -13 2 -34 33 -94 19 -35 18 -41 -6 -33 -16 5 -20 2 -18 -17 2 -14 -2
-22 -10 -20 -7 1 -15 -11 -18 -28 -4 -16 -12 -30 -18 -30 -13 0 -99 81 -171
161 -87 97 -150 171 -154 182 -2 6 -15 23 -28 36 -12 14 -23 32 -23 39 0 7 -8
12 -17 10 -13 -2 -19 5 -21 22 -5 34 -20 49 -32 30 -7 -12 -12 -11 -29 4 -24
22 -19 36 9 29 22 -6 27 9 8 25 -7 5 -30 19 -51 31 -31 17 -41 19 -58 8 -16
-10 -21 -9 -27 1 -5 7 -11 9 -15 5z m9 -80 c-4 -21 -10 -53 -12 -72 -6 -43
-22 -73 -37 -68 -18 6 -20 27 -2 27 15 0 17 7 12 40 -4 30 0 46 14 64 10 13
19 29 19 35 0 6 3 11 6 11 4 0 3 -17 0 -37z m-125 -343 c11 0 12 -47 0 -54
-11 -7 -34 72 -24 87 5 8 9 5 11 -10 2 -13 8 -23 13 -23z m479 -341 c0 -6 -5
-7 -10 -4 -9 5 -30 -34 -30 -53 0 -4 18 -26 39 -49 29 -31 41 -39 50 -30 8 8
11 8 11 -1 0 -17 31 -15 58 3 19 14 25 14 49 1 16 -8 24 -15 18 -16 -5 0 16
-14 48 -31 32 -17 65 -28 73 -25 8 3 13 2 10 -3 -3 -5 1 -12 10 -15 10 -4 13
-2 9 7 -4 6 2 3 12 -9 10 -12 29 -26 41 -33 11 -6 37 -43 56 -83 28 -59 32
-75 23 -94 -15 -33 1 -44 22 -15 12 15 21 20 25 13 4 -6 14 -9 24 -6 13 4 14
3 4 -4 -18 -12 -24 -85 -7 -78 13 4 31 -52 20 -62 -3 -3 -5 2 -5 12 0 9 -4 15
-10 11 -11 -7 4 -52 27 -77 8 -9 12 -22 8 -27 -10 -16 -23 -13 -21 5 1 18 -29
42 -40 31 -4 -4 0 -15 9 -25 30 -33 19 -47 -13 -17 -16 16 -30 27 -31 24 -5
-27 -4 -47 3 -43 8 5 12 -11 9 -30 -1 -5 4 -31 10 -57 12 -48 6 -77 -11 -50
-9 16 -168 20 -179 5 -3 -5 -20 -10 -37 -11 -25 -2 -33 2 -37 18 -4 15 -11 18
-30 14 -16 -4 -35 0 -52 11 -17 11 -42 17 -66 15 -22 -1 -39 3 -39 9 0 14 -18
13 -23 -2 -2 -7 -2 -3 -1 9 6 32 -14 39 -22 8 -5 -20 -9 -24 -18 -14 -8 8 -8
13 2 16 21 8 13 23 -14 23 -22 0 -25 4 -23 28 2 33 -10 64 -22 56 -5 -3 -9 2
-9 11 0 9 -4 13 -10 10 -5 -3 -10 -1 -10 4 0 6 5 11 11 11 5 0 7 5 4 11 -4 6
-13 8 -20 5 -8 -3 -19 2 -25 10 -7 8 -9 14 -6 14 4 0 -3 10 -14 22 -12 13 -19
31 -17 40 3 9 0 19 -5 20 -12 4 -28 83 -19 96 3 5 17 13 30 17 22 7 23 9 8 20
-9 6 -14 15 -10 18 3 4 2 7 -4 7 -5 0 -20 9 -33 20 l-23 20 31 0 c39 0 43 17
5 22 -20 2 -29 10 -34 32 -8 28 -7 28 27 22 21 -4 34 -3 34 4 0 5 -16 10 -36
10 l-36 0 7 37 c4 21 10 40 14 43 4 3 10 13 14 23 5 13 13 16 33 11 22 -6 26
-4 21 9 -3 9 1 18 10 21 14 6 13 10 -8 34 -13 15 -17 21 -9 15 20 -19 43 -16
36 3 -4 11 1 18 15 21 11 3 18 11 15 19 -3 8 2 11 15 9 10 -2 19 0 19 5 0 5
11 -2 25 -16 14 -14 25 -29 25 -35z m525 -61 c5 4 5 1 1 -5 -5 -9 0 -13 14
-13 12 0 34 -13 49 -29 25 -27 26 -30 9 -40 -14 -9 -24 -4 -58 29 -40 39 -60
49 -60 30 0 -13 83 -105 94 -105 5 0 11 -6 14 -12 7 -23 -11 -14 -50 24 -26
25 -41 34 -48 27 -7 -7 -4 -18 9 -35 19 -24 19 -25 0 -26 -10 -1 -19 2 -19 6
0 4 -14 28 -31 54 -17 26 -27 52 -23 58 4 8 3 9 -4 5 -7 -4 -12 -1 -12 8 0 15
34 31 48 22 4 -2 14 -1 22 4 8 5 19 5 26 0 6 -6 15 -6 19 -2z m-100 -120 c4
-13 15 -32 25 -43 27 -32 33 -46 16 -39 -9 3 -14 11 -13 17 1 6 -5 12 -13 12
-8 1 -14 6 -12 13 1 7 -4 12 -10 12 -7 0 -19 4 -27 9 -12 8 -12 12 -2 25 18
22 28 20 36 -6z m753 -150 c19 -19 15 -48 -8 -48 -21 0 -45 34 -35 50 8 14 28
13 43 -2z m-1243 -459 c4 -6 12 -8 19 -6 6 3 19 -6 29 -19 18 -24 18 -24 -6
-24 -25 0 -77 34 -77 51 0 13 27 11 35 -2z m-60 -41 c28 -12 33 -28 10 -28 -8
0 -15 6 -16 13 0 6 -5 1 -10 -12 -5 -13 -8 -25 -6 -27 1 -2 19 1 40 5 24 6 37
5 37 -1 0 -6 7 -7 16 -4 8 3 27 3 41 0 21 -6 24 -11 19 -33 -4 -14 -8 -33 -9
-41 -1 -8 -9 -18 -17 -22 -12 -5 -12 -7 3 -7 17 -1 25 -31 8 -31 -28 0 -72 14
-88 29 -10 9 -31 22 -46 29 -15 6 -26 16 -22 21 3 5 -6 18 -20 29 -18 15 -25
29 -25 56 0 33 2 36 30 36 16 0 41 -5 55 -12z m781 -78 c5 -5 40 -11 76 -12
l66 -3 17 -47 c18 -50 24 -112 12 -124 -15 -15 -162 -9 -197 8 -19 9 -93 36
-164 60 l-130 43 48 7 c26 4 78 16 116 27 37 12 77 21 89 21 11 0 26 7 33 15
16 17 21 18 34 5z m-26 -259 c-44 -18 -60 -19 -60 -1 0 10 30 17 75 18 27 1
26 -1 -15 -17z M990 1723 c105 -41 140 -51 140 -44 0 12 -104 51 -133 50 -15
0 -17 -2 -7 -6z M1177 1633 c-33 -92 -13 -183 55 -252 51 -53 95 -71 184 -78
54 -4 78 -2 103 12 44 22 34 29 -23 14 -173 -43 -332 92 -305 259 4 29 11 62
14 72 13 43 -12 17 -28 -27z M1375 1591 c-3 -5 -1 -12 4 -16 6 -3 8 -12 5 -20
-15 -37 49 -85 87 -65 46 25 3 110 -56 110 -19 0 -36 -4 -40 -9z M1157 1272
c-28 -30 -20 -49 8 -22 25 24 32 40 17 40 -5 0 -16 -8 -25 -18z M1196 1234
c-10 -14 -16 -32 -14 -39 2 -8 13 3 25 25 24 44 15 55 -11 14z M1228 1209
c-20 -35 -23 -49 -8 -49 10 0 40 52 40 70 0 19 -15 10 -32 -21z M1286 1184
c-9 -23 -7 -64 2 -64 13 0 29 42 24 63 -4 21 -18 22 -26 1z M1570 1182 c0 -5
9 -17 19 -26 23 -21 40 -3 17 19 -16 16 -36 20 -36 7z M1336 1173 c-13 -13 -6
-63 9 -63 10 0 15 10 15 29 0 30 -12 46 -24 34z M1390 1136 c0 -14 5 -28 11
-31 15 -10 18 -4 12 28 -7 34 -23 36 -23 3z M845 800 c3 -5 11 -10 16 -10 6 0
26 -12 45 -26 19 -15 37 -24 40 -21 10 10 -6 27 -46 47 -43 22 -65 26 -55 10z
M610 686 c0 -20 27 -27 40 -10 7 8 11 14 9 15 -42 8 -49 7 -49 -5z M760 682
c0 -4 15 -14 33 -22 17 -7 36 -15 40 -18 4 -2 -3 8 -16 22 -23 24 -57 35 -57
18z M1525 620 c3 -5 25 -10 48 -9 33 0 38 2 22 9 -28 12 -78 12 -70 0z"/></g>
<g class="ink"><path d="M1194 2821 c38 -23 71 -40 73 -37 6 5 -88 62 -118 71 -13 3 7 -12 45
-34z M1821 2819 c-7 -23 -15 -48 -18 -58 -4 -9 -4 -14 0 -11 11 10 46 110 38
110 -4 0 -13 -18 -20 -41z M1210 2776 c0 -6 84 -69 135 -102 47 -30 19 3 -38
45 -56 40 -97 65 -97 57z M1315 2745 c49 -42 73 -49 33 -11 -21 20 -43 36 -50
36 -7 0 1 -11 17 -25z M821 2685 c-37 -43 -53 -74 -119 -231 -76 -182 -106
-324 -121 -584 -5 -91 -8 -190 -5 -220 14 -172 64 -346 135 -472 27 -48 49
-91 49 -95 0 -5 -30 -36 -67 -70 l-68 -62 147 -1 c147 0 147 0 172 27 19 21
23 31 15 45 -13 24 -4 38 25 38 16 0 26 7 29 21 4 15 11 20 23 15 15 -6 15 -4
3 13 -121 165 -154 243 -170 398 -6 60 -8 157 -5 217 8 142 34 202 119 283
l60 57 30 -40 c35 -45 148 -156 154 -150 2 2 -5 20 -16 40 -12 20 -18 36 -15
36 4 0 26 -20 51 -45 24 -25 48 -45 53 -45 5 0 18 -12 29 -26 11 -15 40 -39
64 -54 60 -38 94 -31 153 30 26 27 58 51 73 55 14 4 48 17 74 31 27 13 60 24
73 24 14 0 27 7 30 15 4 8 18 15 33 15 33 1 48 13 91 73 36 51 40 53 59 35 11
-11 12 -8 7 13 -11 49 7 38 46 -26 l38 -65 -16 -37 c-10 -21 -16 -42 -15 -47
1 -4 -3 -14 -9 -21 -25 -31 -1 -79 59 -121 l35 -23 22 33 c27 39 45 72 120
212 35 65 60 102 63 93 7 -17 31 -23 31 -8 0 5 4 8 10 4 5 -3 18 3 30 15 11
11 25 20 31 20 8 0 8 5 -1 15 -10 12 -10 15 4 15 9 0 17 7 17 15 3 28 4 33 12
41 11 11 9 26 -3 19 -5 -3 -11 2 -12 12 0 10 -2 25 -2 33 -1 10 -9 14 -24 12
-12 -2 -22 -1 -22 1 0 16 38 86 43 80 4 -3 7 0 8 8 0 8 11 -13 24 -46 33 -85
31 -37 -4 65 -16 47 -43 133 -61 193 -18 59 -37 107 -41 107 -4 0 -35 -16 -69
-35 -34 -19 -67 -32 -73 -28 -5 3 -7 1 -4 -4 4 -6 -18 -27 -47 -46 -82 -55
-182 -152 -257 -252 -37 -49 -89 -114 -116 -144 l-49 -54 -58 79 c-32 43 -69
99 -84 124 -75 133 -145 250 -149 250 -2 0 17 -39 43 -87 97 -182 116 -226
102 -234 -9 -6 -5 -11 12 -17 14 -6 43 -31 64 -58 l40 -47 -30 6 c-29 6 -29 6
4 -8 18 -9 32 -23 32 -33 0 -9 16 -28 35 -41 19 -13 32 -27 29 -32 -3 -5 2 -9
10 -9 9 0 16 -5 16 -11 0 -6 -6 -9 -14 -6 -33 13 -104 18 -110 9 -4 -6 -22 -8
-40 -5 -40 6 -92 -9 -140 -42 l-35 -24 -75 97 c-42 53 -121 153 -176 222 -55
69 -148 195 -205 280 -131 193 -126 186 -151 194 -17 5 -29 -2 -53 -29z m116
-502 c-65 -186 -92 -383 -84 -618 5 -142 9 -167 32 -224 14 -35 24 -65 22 -67
-10 -10 -57 119 -71 197 -20 106 -20 178 -1 344 31 265 78 456 107 427 9 -9 8
-23 -5 -59z m1182 -30 c1 -12 -4 -34 -10 -50 l-11 -28 -12 32 c-6 17 -14 35
-18 39 -14 13 -8 -37 8 -67 9 -18 12 -39 8 -51 -7 -22 -7 -22 -30 5 -13 15
-26 43 -30 63 -6 33 -3 40 37 80 42 43 44 44 51 22 3 -13 6 -33 7 -45z m-1117
-15 l26 -41 -61 -69 c-33 -37 -63 -66 -65 -63 -12 12 50 215 67 215 3 0 18
-19 33 -42z m103 -88 c28 -55 30 -64 14 -54 -9 5 -49 87 -49 100 0 14 13 -3
35 -46z m68 -81 c15 -29 26 -54 23 -56 -5 -6 -43 49 -56 81 -17 44 4 29 33
-25z M1230 2695 c0 -8 110 -88 116 -83 2 3 -20 24 -49 47 -50 38 -67 47 -67
36z M1223 2647 c26 -24 47 -51 47 -60 0 -18 53 -83 81 -98 15 -7 17 -6 13 6
-4 8 -11 15 -17 15 -6 0 -8 3 -4 6 3 4 29 -8 57 -26 28 -18 53 -30 55 -28 8 8
-98 71 -120 72 -14 1 -19 8 -18 23 2 16 -15 37 -61 77 -35 31 -67 56 -72 56
-5 -1 12 -20 39 -43z M1340 2475 c0 -10 78 -113 93 -122 14 -8 1 13 -42 67
-49 63 -51 65 -51 55z M1449 2253 c10 -21 34 -58 52 -83 19 -25 34 -49 34 -53
0 -10 85 -62 85 -53 0 3 -14 13 -31 22 -20 10 -28 19 -21 23 7 4 1 13 -18 24
-17 11 -45 46 -67 87 -39 72 -69 100 -34 33z M2631 1973 c80 -148 169 -287
221 -347 15 -18 8 40 -8 60 -14 18 -14 18 -3 -6 12 -24 11 -24 -6 -10 -29 23
-127 178 -181 284 -27 53 -53 96 -57 96 -5 0 11 -35 34 -77z M2651 2048 c-1
-15 79 -181 85 -176 3 3 -15 46 -40 94 -25 49 -45 86 -45 82z M1764 1552 c-18
-12 -35 -52 -28 -65 4 -6 27 -42 51 -79 24 -37 52 -96 63 -130 21 -67 19 -91
-3 -38 -12 26 -15 29 -21 15 -4 -13 7 -36 39 -76 25 -31 45 -60 45 -64 0 -11
-64 -67 -122 -105 -117 -77 -315 -103 -449 -59 -35 11 -72 27 -83 35 -33 23
-53 17 -60 -18 -4 -21 -1 -37 9 -48 28 -31 19 -43 -27 -37 -32 5 -37 4 -20 -3
12 -5 22 -16 22 -24 0 -21 -71 -3 -153 40 -38 20 -70 34 -72 32 -2 -2 34 -23
81 -47 l84 -44 -32 -28 c-29 -24 -35 -25 -49 -13 -23 21 -35 17 -15 -5 28 -31
-1 -37 -33 -7 -15 14 -31 26 -37 26 -5 0 7 -14 26 -30 l35 -30 -33 -27 -32
-28 0 -117 c0 -65 3 -118 6 -118 3 0 31 20 62 43 70 54 226 158 268 180 29 15
32 15 99 -24 95 -56 241 -114 308 -124 27 -4 143 -52 162 -68 6 -4 37 -25 70
-47 33 -21 71 -55 84 -75 37 -55 119 -125 147 -125 16 0 41 16 70 46 55 57 70
85 79 149 4 28 11 55 14 60 4 6 8 62 10 125 3 137 -12 211 -75 379 -24 63 -44
117 -44 120 0 3 11 -11 25 -30 13 -19 34 -49 47 -66 26 -37 42 -43 33 -12 l-7
22 28 -20 c41 -29 115 -65 121 -59 3 2 -8 12 -24 22 -155 95 -205 135 -190
150 2 2 25 -14 51 -36 27 -22 53 -40 60 -40 17 1 -93 98 -127 113 -21 8 -51
44 -98 115 -38 57 -69 98 -69 90 0 -7 8 -25 17 -38 11 -17 2 -12 -28 15 -40
36 -44 42 -31 57 12 14 11 18 -10 29 -13 7 -46 32 -74 56 -28 23 -55 43 -61
43 -5 0 -19 11 -31 25 -21 24 -56 32 -78 17z m126 -319 c11 -36 19 -68 17 -70
-5 -5 -47 105 -47 123 0 29 10 12 30 -53z m180 -248 c0 -5 -22 24 -49 66 -27
42 -54 79 -60 83 -6 4 -11 15 -11 24 0 17 119 -155 120 -173z m-121 68 c6 -16
22 -80 37 -143 24 -108 24 -115 8 -127 -32 -24 -119 -20 -219 8 -131 37 -315
101 -315 108 0 4 26 9 57 10 76 2 219 51 315 108 43 24 81 49 84 54 10 16 21
10 33 -18z m-616 -130 c50 -26 286 -109 378 -133 119 -32 249 -104 249 -138 0
-10 -14 -3 -42 20 -52 42 -102 63 -296 127 -130 43 -352 138 -329 140 4 1 22
-6 40 -16z m716 -132 c11 -47 19 -86 17 -89 -5 -5 -41 116 -51 168 -11 63 12
10 34 -79z m-22 -51 c11 -28 9 -31 -18 -46 -28 -14 -49 -12 -49 5 0 4 12 13
26 20 34 15 25 25 -11 11 -29 -11 -65 -5 -65 11 0 5 12 9 28 9 15 0 34 5 42
10 25 16 35 12 47 -20z m49 -128 c16 -55 11 -116 -9 -109 -7 2 -12 12 -12 23
0 10 -6 30 -14 44 -10 17 -11 25 -2 28 6 2 9 8 6 12 -3 5 -11 7 -19 4 -7 -3
-17 6 -23 19 -10 20 -8 28 10 46 21 20 23 21 35 4 7 -10 20 -42 28 -71z M1760
1335 c0 -12 50 -88 55 -83 2 2 -2 22 -10 43 -8 24 -14 32 -15 20 -1 -18 -2
-17 -15 5 -8 14 -14 20 -15 15z M2400 1184 c0 -9 133 -186 195 -258 53 -62 54
-66 28 -60 -15 4 -36 11 -45 15 -23 12 -28 11 -22 -5 5 -13 27 -22 79 -32 39
-7 24 32 -42 112 -36 44 -92 114 -125 157 -55 72 -68 86 -68 71z M1055 1056
c34 -29 114 -70 123 -62 2 3 -15 14 -39 25 -24 11 -60 30 -79 41 l-35 22 30
-26z M2330 932 c0 -11 81 -92 92 -92 12 0 -2 20 -46 68 -29 31 -46 40 -46 24z
M2410 916 c13 -17 78 -41 87 -33 6 6 -70 47 -88 47 -8 0 -8 -4 1 -14z M2566
820 c6 -6 39 -16 75 -24 35 -7 63 -16 62 -19 -2 -4 -1 -7 2 -7 3 0 19 0 35 0
54 0 31 15 -57 38 -96 25 -133 28 -117 12z M2345 803 c13 -35 23 -110 30 -218
6 -99 14 -149 16 -99 0 10 2 33 3 49 6 80 -27 285 -46 285 -6 0 -7 -8 -3 -17z
M2490 794 c0 -15 109 -52 185 -62 l50 -6 -50 -7 c-80 -11 -105 -10 -105 5 0 8
-31 25 -72 40 -84 30 -88 31 -88 12 0 -12 47 -34 105 -50 11 -3 -1 -3 -27 -1
-38 4 -48 1 -48 -10 0 -8 7 -15 15 -15 8 0 15 -7 15 -15 0 -20 62 -35 144 -35
64 0 68 -1 50 -15 -17 -13 -17 -14 -1 -15 9 0 17 -5 17 -11 0 -5 -4 -7 -10 -4
-5 3 -10 -1 -10 -9 0 -8 10 -18 23 -22 12 -3 33 -14 47 -23 14 -9 41 -18 60
-20 19 -2 43 -7 53 -12 15 -8 17 -5 17 23 0 18 -7 42 -15 52 -8 11 -15 14 -15
8 0 -7 -4 -12 -10 -12 -19 0 -10 21 15 32 14 6 25 17 25 24 0 11 -8 10 -41 -1
-49 -18 -52 -18 -44 -6 3 5 0 13 -6 17 -7 4 -9 3 -6 -3 11 -17 -21 -39 -35
-25 -8 8 -9 15 -2 22 12 12 75 20 68 9 -3 -5 0 -9 5 -9 6 0 11 8 12 18 0 9 3
12 5 5 3 -7 12 -9 20 -6 10 4 12 9 4 18 -7 9 -6 16 5 25 8 7 15 17 15 22 0 12
-40 0 -60 -17 -27 -23 -165 -52 -174 -36 -6 9 40 21 78 21 12 0 30 9 39 21 10
11 24 18 32 15 9 -3 12 0 8 11 -5 12 -16 14 -52 9 -48 -6 -76 -1 -178 32 -50
16 -63 17 -63 6z"/></g>
</g>
</svg>